<svg width="58" height="46" viewBox="0 0 58 46" fill="none" xmlns="http://www.w3.org/2000/svg">
<path d="M53.1572 0.918945L56.918 9.86426L57.0352 10.1436V18H54.7529V41.9922H53.3838V45.5703H46.4316V41.9922H10.6445V45.5703H3.69238V41.9922H2.31152V18H0L0.0351562 16.4648L0.177734 10.4102L0.18457 10.1152L0.302734 9.84473L4.21094 0.899414L4.60352 0H52.7715L53.1572 0.918945ZM6.69238 42.5703H7.64453V41.9932H6.69238V42.5703ZM49.4316 42.5703H50.3838V41.9932H49.4316V42.5703ZM5.31152 38.9922H51.7529V18H5.31152V38.9922ZM3.1084 13.3867L3.07129 15H54.0352V13.3867H3.1084ZM3.33887 10.3867H11.9834L13.7939 5.37695L14.1523 4.38672H42.918L43.2764 5.37695L45.0869 10.3867H53.8828L50.7783 3H6.56738L3.33887 10.3867ZM15.1719 10.3867H17.5742L18.166 7.38672H16.2568L15.1719 10.3867ZM20.6318 10.3867H22.8564V7.38672H21.2236L20.6318 10.3867ZM25.8564 10.3867H27.3633V7.38672H25.8564V10.3867ZM30.3633 10.3867H31.8643V7.38672H30.3633V10.3867ZM34.8643 10.3867H37.0898L36.4971 7.38672H34.8643V10.3867ZM40.1475 10.3867H41.8984L40.8135 7.38672H39.5557L40.1475 10.3867Z" fill="white"/>
</svg>
