<svg width="47" height="42" viewBox="0 0 47 42" fill="none" xmlns="http://www.w3.org/2000/svg">
<path d="M2.69579 22.2389V40.9478H5.16214V24.3559" stroke="white" stroke-width="1.28271" stroke-miterlimit="22.9256"/>
<path d="M43.7374 20.0125H41.2711V40.9478H43.7374V20.0125Z" stroke="white" stroke-width="1.28271" stroke-miterlimit="22.9256"/>
<path d="M45.625 14.7408H0.641357V20.0125H45.625V14.7408Z" stroke="white" stroke-width="1.28271" stroke-miterlimit="22.9256"/>
<path d="M16.9099 5.17778V3.51964C16.9099 1.9345 15.6168 0.641357 14.0316 0.641357H13.6562C12.0711 0.641357 10.7779 1.9345 10.7779 3.51964V12.7385" stroke="white" stroke-width="1.28271" stroke-miterlimit="22.9256"/>
<path d="M15 5.45996H19" stroke="white" stroke-width="1.28271" stroke-miterlimit="22.9256"/>
<path d="M6.22586 12.9001H15.1214" stroke="white" stroke-width="1.28271" stroke-miterlimit="22.9256"/>
<path d="M7.519 9.77673V12.9001" stroke="white" stroke-width="1.28271" stroke-miterlimit="22.9256"/>
<path d="M13.8283 9.77673V12.9001" stroke="white" stroke-width="1.28271" stroke-miterlimit="22.9256"/>
<path d="M4.50514 14.7408L2.90957 17.4992H18.8079L17.155 14.7408" stroke="white" stroke-width="1.28271" stroke-miterlimit="22.9256"/>
<path d="M19.4024 20.0072V20.4191C19.4024 22.7082 17.5356 24.5801 15.2414 24.5801H6.51786C4.22879 24.5801 2.35686 22.7134 2.35686 20.4191V20.0072" stroke="white" stroke-width="1.28271" stroke-miterlimit="22.9256"/>
</svg>
