<svg width="20" height="18" viewBox="0 0 20 18" fill="none" xmlns="http://www.w3.org/2000/svg">
<path d="M5.60938 5H4.38672C3.0871 5 2.43782 5 1.97559 5.26514C1.56995 5.49781 1.25815 5.86535 1.09533 6.30371C0.9099 6.80294 1.01663 7.44333 1.23002 8.72367L1.23047 8.72607L2.1638 14.3261C2.32213 15.276 2.40182 15.7512 2.63884 16.1077C2.84778 16.4219 3.14108 16.6703 3.48535 16.8247C3.87591 16.9999 4.35724 17 5.32031 17H13.8987C14.8618 17 15.3428 16.9999 15.7333 16.8247C16.0776 16.6703 16.3711 16.4219 16.5801 16.1077C16.8171 15.7512 16.8964 15.276 17.0547 14.3261L17.988 8.72607L17.9889 8.72217C18.2022 7.44283 18.3088 6.80274 18.1235 6.30371C17.9607 5.86535 17.6496 5.49781 17.244 5.26514C16.7817 5 16.1314 5 14.8318 5H13.6094M5.60938 5H13.6094M5.60938 5C5.60938 2.79086 7.40024 1 9.60938 1C11.8185 1 13.6094 2.79086 13.6094 5" stroke="white" stroke-width="2" stroke-linecap="round" stroke-linejoin="round"/>
</svg>
