<svg width="59" height="42" viewBox="0 0 59 42" fill="none" xmlns="http://www.w3.org/2000/svg">
<path fill-rule="evenodd" clip-rule="evenodd" d="M45.0084 33.5496C47.1954 32.8743 47.3641 36.8799 44.8678 37.5248C42.6645 38.0941 42.3548 34.3689 45.0084 33.5496ZM17.9908 33.5496C20.1777 32.8743 20.3465 36.8799 17.8502 37.5248C15.647 38.0941 15.3372 34.3689 17.9908 33.5496ZM53.8081 23.004C51.3769 23.004 48.9459 23.0039 46.5148 23.004C43.6073 23.0042 42.2854 22.9774 42.6648 19.6738C43.5497 11.9681 42.2565 12.5878 50.1639 12.5878C50.8298 14.2264 51.6784 15.9251 52.4159 17.5975C53.982 21.1487 54.1076 20.375 53.8082 23.0041L53.8081 23.004ZM11.9635 37.611C12.3445 37.7959 12.2288 37.831 12.4182 38.3265C12.5413 38.6486 12.6301 38.8324 12.7965 39.1216C15.2878 43.4502 21.759 42.0378 23.2835 37.6309L38.9811 37.6105C39.3786 37.7018 39.3164 38.2567 39.8142 39.1216C42.3054 43.4502 48.7765 42.0378 50.301 37.6309C52.1149 37.5255 55.2189 38.131 56.1779 36.7503C56.7954 35.8612 57.5905 26.3571 57.789 24.5617C58.3511 19.4776 58.4719 21.2589 56.428 16.4542L53.2415 9.33852C52.3375 7.98502 49.5968 8.39693 47.2943 8.39693C45.0321 8.39693 42.6721 8.46222 40.4219 8.38488C41.1008 0.988213 42.4402 0.05 36.9028 0.0500825H17.0293C14.9168 0.0500825 12.4715 -0.0649865 10.4003 0.0537141C8.28492 0.174891 7.64242 2.64705 9.1603 3.78197C10.6839 4.92118 20.0388 3.66459 21.6421 4.41443C23.3941 5.23395 23.2124 7.78832 21.3651 8.31083C19.3088 8.89245 6.63896 7.87862 5.23215 8.67552C4.63127 9.01585 3.98107 9.82447 4.2259 10.9506C4.66515 12.9713 7.16067 12.5703 9.23586 12.5703C13.6522 12.5703 18.0685 12.5703 22.4848 12.5703C24.1389 12.5703 27.3945 12.1814 28.4242 13.1264C29.8561 14.4405 28.9874 16.7035 26.7777 16.7467C22.403 16.8321 17.9077 16.7562 13.522 16.7433C12.3771 16.7399 11.5584 16.7464 10.9518 17.4252C10.4223 18.0174 10.2109 19.1079 10.7342 19.9289C12.2585 22.3205 20.5752 19.6501 22.3203 21.606C23.7089 23.1623 22.5274 25.0907 20.28 25.0939C15.8629 25.1002 11.4448 25.0907 7.02758 25.0907C4.93488 25.0907 2.45964 24.7114 2.12635 26.8201C1.95264 27.9188 2.57852 28.6372 3.16132 28.978C4.42072 29.7145 8.00522 28.8394 9.25763 29.4986C11.0664 30.4507 10.5688 32.9791 8.79388 33.3774C7.81375 33.5973 6.48801 33.2455 5.58171 33.5529C3.72554 34.1824 3.78204 36.7489 5.49401 37.4565C6.21936 37.7563 10.8101 37.611 11.9634 37.611H11.9635Z" fill="white"/>
<path fill-rule="evenodd" clip-rule="evenodd" d="M1.57784 16.829C0.281528 17.2049 -0.56631 18.7491 0.449743 20.0838C1.12388 20.9693 3.34628 21.2249 4.73878 20.8311C5.9759 20.4812 6.77475 18.8795 5.8109 17.5782C5.14614 16.6805 2.90942 16.4428 1.57784 16.829Z" fill="white"/>
</svg>
