<svg width="67" height="67" viewBox="0 0 67 67" fill="none" xmlns="http://www.w3.org/2000/svg">
<path fill-rule="evenodd" clip-rule="evenodd" d="M31.315 11.8683L35.2043 11.8762L35.2036 15.7809L39.1012 15.7889V19.6883L35.2043 19.6945L35.2044 23.6009L31.3066 23.6072V19.7008L27.4098 19.6945L27.4101 15.7809L31.3066 15.773L31.315 11.8683ZM33.2634 3.45944C31.6493 1.99599 29.5986 0.273348 26.235 0.0318195C20.7596 -0.361263 15.5371 2.9257 13.2149 7.78046C11.2983 11.7874 11.3222 16.4709 13.551 20.447C14.801 22.677 15.6705 23.149 17.0845 24.7208C18.5404 26.3393 27.5852 32.4302 30.4217 34.8058L33.2633 37.1703L36.1751 34.7444C37.1701 33.9601 38.0443 33.2144 39.0692 32.4376C44.8847 28.0298 52.9627 23.822 54.4301 16.5569C55.7834 9.85656 51.9591 4.46765 48.3739 2.17726C46.219 0.800566 43.267 -0.219036 40.166 0.0414774C35.8921 0.400468 33.9114 3.08262 33.2632 3.45952L33.2634 3.45944Z" fill="white"/>
<path fill-rule="evenodd" clip-rule="evenodd" d="M12.3569 45.5101C4.82186 38.4527 8.6359 33.0112 5.11675 21.7399C4.69204 20.3796 3.27118 16.6776 1.57532 18.2623C-0.914131 20.5887 0.219648 36.1956 0.509362 39.4038C0.743336 41.9948 1.2117 43.4807 2.41429 45.3196C5.11206 49.4455 10.0046 53.6926 13.7193 57.1862C16.0419 59.3705 19.4788 63.1757 19.6158 66.7753L31.3066 66.7671C31.3066 63.4561 31.5472 50.514 31.0551 48.2466C29.9853 43.3181 26.2624 40.923 22.0232 38.6727C20.1187 37.6618 17.745 36.3493 15.2553 36.0884C13.8803 35.9443 12.381 36.2096 12.1111 37.4572C11.4293 40.6096 16.5724 43.7474 18.3509 45.1001C19.3297 45.8447 23.1344 48.4518 23.6563 49.0385L21.3511 52.1131L12.3569 45.51V45.5101Z" fill="white"/>
<path fill-rule="evenodd" clip-rule="evenodd" d="M46.8957 66.7691C47.0188 63.4581 49.1752 61.2756 50.963 59.116C52.6602 57.0659 55.2089 55.0933 56.9223 53.358L61.6869 48.4948C64.2286 45.252 65.5761 44.0747 66.0231 39.2555C66.3076 36.1877 67.4869 20.1879 64.7907 18.157C63.0935 16.8785 61.7454 20.5734 61.3279 21.923C60.1135 25.8486 59.5877 31.0032 59.2186 35.332C58.9928 37.9802 58.5832 39.32 57.4629 41.3829C55.3518 45.27 52.9639 46.3301 49.5351 48.9425C48.7521 49.5391 48.0924 50.0148 47.2746 50.5859C46.5549 51.0886 45.8469 51.6904 45.1303 52.1152L42.8576 49.0384C43.2476 48.5975 47.3851 45.6792 48.2376 45.0334C50.1319 43.5983 51.8988 42.6309 53.2664 40.8213C55.0066 38.5184 55.14 35.4991 50.9454 36.1341C47.3708 36.6753 41.3034 40.21 38.7075 42.5034C37.3143 43.7343 35.9015 45.7967 35.3946 48.4457C34.9925 50.5473 35.2043 63.5961 35.2043 66.775L46.8957 66.769V66.7691Z" fill="white"/>
</svg>
