<svg width="65" height="39" viewBox="0 0 65 39" fill="none" xmlns="http://www.w3.org/2000/svg">
<path d="M65 33.2227H59.2227V39H50.5557V33.2227H14.4453V39H5.77832V33.2227H0V21.667H65V33.2227ZM8.66699 36.1113H11.5557V33.2227H8.66699V36.1113ZM53.4443 33.2227V36.1113H56.333V33.2227H53.4443ZM2.88867 30.334H5.77832V30.333H14.4453V30.334H50.5557V30.333H59.2227V30.334H62.1113V24.5557H2.88867V30.334ZM65 11.5557H59.2227V17.333H50.5557V11.5557H14.4453V17.333H5.77832V11.5557H0V0H65V11.5557ZM8.66699 14.4443H11.5557V11.5557H8.66699V14.4443ZM53.4443 14.4443H56.333V11.5557H53.4443V14.4443ZM2.88867 8.66699H5.77832V8.66602H14.4453V8.66699H50.5557V8.66602H59.2227V8.66699H62.1113V2.88867H2.88867V8.66699Z" fill="white"/>
</svg>
