<svg width="62" height="40" viewBox="0 0 62 40" fill="none" xmlns="http://www.w3.org/2000/svg">
<path d="M41.5 13.7314L56.9941 25H61.5V39.5H0V25H4.50586L20 13.7314V0H41.5V13.7314ZM1.5 38H60V26.5H1.5V38ZM24.25 30.75C25.0784 30.75 25.75 31.4216 25.75 32.25C25.75 33.0784 25.0784 33.75 24.25 33.75C23.4216 33.75 22.75 33.0784 22.75 32.25C22.75 31.4216 23.4216 30.75 24.25 30.75ZM38.25 30.75C39.0784 30.75 39.75 31.4216 39.75 32.25C39.75 33.0784 39.0784 33.75 38.25 33.75C37.4216 33.75 36.75 33.0784 36.75 32.25C36.75 31.4216 37.4216 30.75 38.25 30.75ZM33.75 32.75H28.75V31.25H33.75V32.75ZM7.05664 25H54.4434L40.0059 14.5H21.4941L7.05664 25ZM21.5 13H40V1.5H21.5V13Z" fill="white"/>
</svg>
