<svg width="411" height="89" viewBox="0 0 411 89" fill="none" xmlns="http://www.w3.org/2000/svg">
<g clip-path="url(#clip0_6_1140)">
<path fill-rule="evenodd" clip-rule="evenodd" d="M38.426 6.29697C49.4223 12.6639 60.4182 19.0308 71.4145 25.3976V63.5998C60.4182 69.9667 49.4223 76.3335 38.426 82.7004C27.4297 76.3335 16.4338 69.9667 5.43753 63.5998V25.3976C16.4338 19.0308 27.4297 12.6635 38.426 6.29697ZM38.426 0C25.617 7.41613 12.8087 14.833 0 22.2492V66.7483C12.8087 74.1648 25.6173 81.5817 38.426 88.9974C51.2347 81.5809 64.0434 74.1644 76.852 66.7483V22.2492C64.0434 14.8326 51.2347 7.41652 38.426 0Z" fill="#1A60B0"/>
<path fill-rule="evenodd" clip-rule="evenodd" d="M58.1573 33.0744C58.1573 44.6055 58.1573 56.137 58.1573 67.6681L68.2991 61.7962V27.2024C58.7205 21.6564 49.1419 16.1103 39.5637 10.5642C39.5637 33.1875 39.5637 55.8111 39.5637 78.4347L49.7055 72.5628C49.7055 57.769 49.7055 42.9748 49.7055 28.181L58.1577 33.0748L58.1573 33.0744ZM37.2892 57.4535L27.1474 51.5815V60.8176L18.6956 55.9238V33.0744L27.1474 28.1806V37.4167L37.2892 31.5447V10.5638C27.7106 16.1099 18.132 21.656 8.55375 27.2021V61.7958C18.1324 67.3418 27.711 72.8879 37.2892 78.434V57.4531V57.4535Z" fill="#4C4B4D"/>
<path d="M101.438 66.2234C101.438 66.8085 101.321 67.3174 101.086 67.7497C100.851 68.1821 100.541 68.5414 100.154 68.8277C99.7669 69.1136 99.3265 69.3269 98.8319 69.4671C98.3372 69.6069 97.8298 69.6769 97.31 69.6769C96.7774 69.6769 96.2634 69.6069 95.7691 69.4671C95.2745 69.3269 94.8337 69.114 94.4467 68.8277C94.0598 68.5414 93.7522 68.1821 93.5241 67.7497C93.2956 67.3174 93.1817 66.8085 93.1817 66.2234V63.4949C93.1817 62.9099 93.299 62.401 93.5334 61.9686C93.7681 61.5363 94.0788 61.1769 94.4657 60.8906C94.8527 60.6047 95.2966 60.3884 95.7978 60.2419C96.2986 60.0955 96.8091 60.0224 97.3293 60.0224C97.8875 60.0224 98.417 60.0955 98.9178 60.2419C99.4187 60.3884 99.8564 60.6078 100.231 60.9C100.605 61.1929 100.899 61.5584 101.115 61.9974C101.331 62.4359 101.438 62.9479 101.438 63.5333V66.2234H101.438ZM99.0216 63.9148C99.0216 63.6095 98.9709 63.355 98.8694 63.1515C98.7679 62.9479 98.6347 62.7793 98.4697 62.6457C98.3047 62.5125 98.1242 62.4169 97.9278 62.3598C97.731 62.3027 97.5315 62.2739 97.3286 62.2739C97.1256 62.2739 96.9195 62.3023 96.7104 62.3598C96.5008 62.4169 96.3141 62.5125 96.1491 62.6457C95.9841 62.7793 95.8509 62.9479 95.7498 63.1515C95.6483 63.355 95.5975 63.6095 95.5975 63.9148V65.7845C95.5975 66.0898 95.6448 66.3474 95.7401 66.5571C95.835 66.7673 95.9651 66.9386 96.1301 67.0722C96.2951 67.2059 96.4787 67.3014 96.6817 67.3581C96.8847 67.4152 97.1004 67.444 97.3286 67.444C97.5315 67.444 97.7314 67.4152 97.9278 67.3581C98.1242 67.301 98.3051 67.2055 98.4697 67.0722C98.6347 66.9386 98.7676 66.7669 98.8694 66.5571C98.9709 66.3474 99.0216 66.0898 99.0216 65.7845V63.9148ZM105.699 61.1482C105.827 61.0464 105.972 60.9575 106.137 60.8809C106.302 60.8048 106.473 60.738 106.651 60.6805C106.828 60.6234 107.006 60.5818 107.183 60.5566C107.361 60.5309 107.526 60.5185 107.678 60.5185C108.223 60.5185 108.721 60.5915 109.172 60.738C109.622 60.8844 110.006 61.1035 110.323 61.3964C110.64 61.6889 110.887 62.0642 111.065 62.5222C111.242 62.9802 111.331 63.5143 111.331 64.125V66.1092C111.331 66.6943 111.217 67.2094 110.989 67.6545C110.76 68.0997 110.456 68.4719 110.076 68.7706C109.695 69.0697 109.254 69.295 108.754 69.4481C108.252 69.6007 107.723 69.6773 107.165 69.6773C106.556 69.6773 105.998 69.6011 105.491 69.4481C104.984 69.2954 104.549 69.0697 104.188 68.7706C103.827 68.4719 103.547 68.0997 103.351 67.6545C103.154 67.2094 103.056 66.6943 103.056 66.1092V63.8196C103.056 63.1457 103.081 62.535 103.132 61.9884C103.183 61.4411 103.265 60.9454 103.379 60.5002C103.494 60.0551 103.649 59.6511 103.846 59.2886C104.042 58.9262 104.286 58.5859 104.578 58.2681C104.781 58.0389 105.016 57.8358 105.282 57.6575C105.548 57.4796 105.828 57.3141 106.119 57.1614C106.411 57.0087 106.712 56.8689 107.023 56.7415C107.334 56.6144 107.641 56.4936 107.946 56.379C108.326 56.2264 108.669 56.0931 108.973 55.9781C109.277 55.8639 109.613 55.7175 109.981 55.5392L110.78 57.4854C110.539 57.5872 110.33 57.6765 110.152 57.7526C109.975 57.8288 109.807 57.8991 109.648 57.9624C109.49 58.0261 109.337 58.0863 109.192 58.1438C109.046 58.2009 108.89 58.2615 108.725 58.3252C108.345 58.4779 107.98 58.6337 107.632 58.7929C107.283 58.9518 106.969 59.1363 106.689 59.3461C106.411 59.5559 106.179 59.801 105.995 60.0807C105.811 60.3608 105.687 60.6976 105.624 61.0919L105.7 61.149L105.699 61.1482ZM108.934 64.4299C108.934 63.8321 108.766 63.4028 108.43 63.1422C108.094 62.8815 107.691 62.751 107.222 62.751C107.019 62.751 106.813 62.7859 106.604 62.8559C106.394 62.9258 106.207 63.0338 106.042 63.1802C105.877 63.3263 105.744 63.5077 105.643 63.7237C105.541 63.9401 105.49 64.2007 105.49 64.5061V65.8031C105.49 66.1085 105.538 66.3629 105.633 66.5665C105.728 66.77 105.852 66.9386 106.004 67.0722C106.156 67.2059 106.334 67.3014 106.536 67.3581C106.739 67.4152 106.955 67.444 107.183 67.444C107.399 67.444 107.611 67.4152 107.821 67.3581C108.03 67.301 108.217 67.2055 108.382 67.0722C108.547 66.9386 108.68 66.77 108.782 66.5665C108.883 66.3629 108.934 66.1088 108.934 65.8031V64.4295V64.4299ZM121.205 66.2234C121.205 66.8085 121.087 67.3174 120.853 67.7497C120.618 68.1821 120.307 68.5414 119.92 68.8277C119.533 69.1136 119.093 69.3269 118.598 69.4671C118.103 69.6069 117.596 69.6769 117.076 69.6769C116.544 69.6769 116.03 69.6069 115.535 69.4671C115.041 69.3269 114.6 69.114 114.213 68.8277C113.826 68.5414 113.519 68.1821 113.29 67.7497C113.062 67.3174 112.948 66.8085 112.948 66.2234V63.4949C112.948 62.9099 113.065 62.401 113.3 61.9686C113.534 61.5363 113.845 61.1769 114.232 60.8906C114.618 60.6047 115.063 60.3884 115.564 60.2419C116.064 60.0955 116.575 60.0224 117.095 60.0224C117.653 60.0224 118.182 60.0955 118.684 60.2419C119.184 60.3884 119.622 60.6078 119.996 60.9C120.37 61.1929 120.665 61.5584 120.881 61.9974C121.097 62.4359 121.204 62.9479 121.204 63.5333V66.2234H121.205ZM118.789 63.9148C118.789 63.6095 118.738 63.355 118.636 63.1515C118.535 62.9479 118.402 62.7793 118.237 62.6457C118.072 62.5125 117.891 62.4169 117.695 62.3598C117.498 62.3027 117.298 62.2739 117.095 62.2739C116.893 62.2739 116.686 62.3023 116.477 62.3598C116.268 62.4169 116.081 62.5125 115.916 62.6457C115.751 62.7793 115.618 62.9479 115.516 63.1515C115.415 63.355 115.364 63.6095 115.364 63.9148V65.7845C115.364 66.0898 115.411 66.3474 115.507 66.5571C115.601 66.7673 115.732 66.9386 115.897 67.0722C116.062 67.2059 116.245 67.3014 116.448 67.3581C116.651 67.4152 116.867 67.444 117.095 67.444C117.298 67.444 117.498 67.4152 117.694 67.3581C117.891 67.301 118.072 67.2055 118.237 67.0722C118.402 66.9386 118.534 66.7669 118.636 66.5571C118.737 66.3474 118.788 66.0898 118.788 65.7845V63.9148H118.789ZM131.231 66.2805C131.231 67.3107 130.952 68.1409 130.394 68.7706C129.836 69.4003 129.011 69.7149 127.921 69.7149C127.591 69.7149 127.201 69.6831 126.75 69.6198C126.3 69.5561 125.847 69.4034 125.39 69.1618V73.3595H122.974V60.1564H125.2L125.39 61.0149C125.923 60.6844 126.424 60.4424 126.893 60.2897C127.362 60.137 127.762 60.0605 128.092 60.0605C129.107 60.0605 129.883 60.3402 130.422 60.9C130.961 61.4597 131.231 62.3311 131.231 63.5139V66.2805ZM128.777 63.7241C128.777 63.1771 128.662 62.805 128.434 62.608C128.205 62.4107 127.927 62.3124 127.597 62.3124C127.445 62.3124 127.276 62.3346 127.092 62.3792C126.908 62.4235 126.715 62.4841 126.512 62.5606C126.309 62.6368 126.113 62.7226 125.923 62.8182C125.732 62.9137 125.555 63.0186 125.39 63.1332V66.892C125.821 67.0955 126.195 67.2323 126.512 67.3022C126.829 67.3721 127.134 67.4071 127.426 67.4071C127.794 67.4199 128.11 67.3181 128.377 67.1021C128.643 66.8858 128.777 66.5105 128.777 65.9764V63.7249V63.7241ZM133.894 73.3785L135.34 69.3715L134.788 68.9516L132.201 60.1176H134.693L135.568 63.6852L136.386 66.8333H136.443L137.489 63.6472L138.631 60.1176H141.142L136.329 73.3781H133.894V73.3785ZM145.308 62.1407L145.195 63.9913C145.157 64.6401 145.093 65.276 145.004 65.8995C144.915 66.5229 144.744 67.0571 144.491 67.5023H148.144V62.1411H145.309L145.308 62.1407ZM141.009 67.5209C141.136 67.5209 141.26 67.5209 141.38 67.5209C141.5 67.5209 141.618 67.5147 141.732 67.5019C142.074 67.2474 142.337 66.8562 142.521 66.3283C142.705 65.8004 142.841 65.1964 142.93 64.5158C143.019 63.8352 143.079 63.1165 143.111 62.3598C143.143 61.6031 143.178 60.8619 143.216 60.137H150.483V67.5019H151.377V72.0426H149.227V69.5813H143.158V72.0426H141.009V67.5209H141.009ZM160.928 66.2234C160.928 66.8085 160.81 67.3174 160.576 67.7497C160.341 68.1821 160.03 68.5414 159.643 68.8277C159.256 69.1136 158.816 69.3269 158.321 69.4671C157.827 69.6069 157.319 69.6769 156.799 69.6769C156.267 69.6769 155.753 69.6069 155.258 69.4671C154.764 69.3269 154.323 69.114 153.936 68.8277C153.55 68.5414 153.242 68.1821 153.013 67.7497C152.785 67.3174 152.671 66.8085 152.671 66.2234V63.4949C152.671 62.9099 152.788 62.401 153.023 61.9686C153.257 61.5363 153.568 61.1769 153.955 60.8906C154.342 60.6047 154.786 60.3884 155.287 60.2419C155.788 60.0955 156.298 60.0224 156.818 60.0224C157.376 60.0224 157.906 60.0955 158.407 60.2419C158.908 60.3884 159.345 60.6078 159.72 60.9C160.094 61.1929 160.388 61.5584 160.604 61.9974C160.82 62.4359 160.928 62.9479 160.928 63.5333V66.2234ZM158.511 63.9148C158.511 63.6095 158.461 63.355 158.359 63.1515C158.258 62.9479 158.124 62.7793 157.96 62.6457C157.795 62.5125 157.614 62.4169 157.418 62.3598C157.221 62.3027 157.021 62.2739 156.818 62.2739C156.615 62.2739 156.409 62.3023 156.2 62.3598C155.991 62.4169 155.804 62.5125 155.639 62.6457C155.474 62.7793 155.341 62.9479 155.239 63.1515C155.138 63.355 155.087 63.6095 155.087 63.9148V65.7845C155.087 66.0898 155.134 66.3474 155.229 66.5571C155.324 66.7673 155.454 66.9386 155.619 67.0722C155.785 67.2059 155.968 67.3014 156.171 67.3581C156.374 67.4152 156.59 67.444 156.818 67.444C157.021 67.444 157.221 67.4152 157.417 67.3581C157.614 67.301 157.794 67.2055 157.959 67.0722C158.124 66.9386 158.257 66.7669 158.359 66.5571C158.46 66.3474 158.511 66.0898 158.511 65.7845V63.9148H158.511ZM170.706 66.7385C170.706 67.1328 170.643 67.5019 170.516 67.8453C170.389 68.1887 170.196 68.4909 169.936 68.7516C169.676 69.0122 169.352 69.2158 168.965 69.3622C168.579 69.5083 168.125 69.5817 167.605 69.5817H162.64V60.1374H167.567C168.062 60.1374 168.496 60.2042 168.87 60.3379C169.244 60.4711 169.555 60.6525 169.802 60.8813C170.05 61.1105 170.234 61.3805 170.354 61.692C170.474 62.004 170.535 62.3377 170.535 62.6939C170.535 62.8974 170.503 63.101 170.44 63.3045C170.377 63.5081 170.288 63.6957 170.174 63.8674C170.06 64.0391 169.926 64.1918 169.774 64.3254C169.622 64.459 169.464 64.5577 169.299 64.621V64.6401C169.73 64.818 170.072 65.0915 170.326 65.4605C170.579 65.8292 170.706 66.2553 170.706 66.7389V66.7385ZM168.233 66.6434C168.233 66.3505 168.131 66.1155 167.928 65.9375C167.726 65.7592 167.453 65.6703 167.111 65.6703H165.056V67.6165H167.053C167.459 67.6165 167.757 67.5271 167.947 67.3492C168.138 67.1713 168.233 66.9359 168.233 66.6434ZM168.119 62.9611C168.119 62.6939 168.027 62.4903 167.843 62.3505C167.659 62.2106 167.415 62.1407 167.111 62.1407H165.056V63.7435H167.149C167.466 63.7435 167.707 63.6732 167.872 63.5333C168.037 63.3935 168.119 63.2028 168.119 62.9611H168.119ZM178.088 68.7993C177.517 69.1299 177.004 69.3556 176.547 69.4768C176.091 69.5976 175.666 69.6582 175.272 69.6582C174.308 69.6582 173.563 69.4007 173.037 68.8856C172.51 68.3705 172.247 67.6677 172.247 66.7774C172.247 66.2557 172.355 65.8136 172.571 65.4516C172.787 65.0891 173.062 64.7931 173.399 64.5643C173.735 64.3351 174.105 64.17 174.511 64.0683C174.917 63.9665 175.304 63.9156 175.672 63.9156H178.107V63.5151C178.107 63.0699 177.98 62.7358 177.726 62.5132C177.473 62.2907 177.023 62.1796 176.376 62.1796C176.071 62.1796 175.694 62.2238 175.244 62.3128C174.793 62.4021 174.34 62.6309 173.884 62.9996L172.799 61.2251C173.459 60.7166 174.121 60.386 174.787 60.233C175.453 60.0803 176.065 60.0042 176.623 60.0042C177.968 60.0042 178.957 60.3091 179.591 60.9198C180.225 61.5304 180.542 62.4526 180.542 63.6864V69.5821H178.316L178.145 68.8188L178.088 68.7997L178.088 68.7993ZM178.126 65.7083H176.109C175.957 65.7083 175.808 65.7177 175.662 65.7371C175.516 65.7561 175.383 65.8008 175.262 65.8707C175.142 65.9406 175.044 66.0362 174.968 66.1566C174.892 66.2774 174.853 66.4332 174.853 66.6243C174.853 66.8788 174.945 67.0854 175.129 67.2443C175.313 67.4032 175.589 67.4828 175.957 67.4828C176.363 67.4828 176.762 67.4032 177.155 67.2443C177.549 67.0854 177.872 66.9359 178.126 66.7956V65.7083ZM188.266 69.5813V65.8035H184.803V69.5813H182.425V60.137H184.803V63.7621H188.266V60.137H190.701V69.5813H188.266ZM198.425 63.9723L196.827 66.4336L194.715 69.5817H192.603V60.1374H195.02V65.7087H195.115L196.484 63.6099L198.786 60.1374H200.936V69.5817H198.52V63.9727H198.424L198.425 63.9723ZM205.16 65.5747V65.88C205.16 66.1597 205.207 66.4014 205.302 66.6049C205.397 66.8085 205.524 66.9736 205.683 67.101C205.841 67.228 206.022 67.3232 206.225 67.3869C206.428 67.4506 206.643 67.4824 206.872 67.4824C207.138 67.4824 207.468 67.4409 207.861 67.3581C208.254 67.2754 208.672 67.0559 209.117 66.7001L210.448 68.36C210.157 68.6401 209.865 68.8658 209.573 69.0375C209.282 69.2092 208.99 69.3424 208.698 69.438C208.407 69.5331 208.112 69.5968 207.814 69.6287C207.515 69.6606 207.214 69.6765 206.91 69.6765C206.352 69.6765 205.822 69.6066 205.321 69.4667C204.821 69.3265 204.38 69.1136 203.999 68.8273C203.619 68.541 203.315 68.1817 203.086 67.7493C202.858 67.317 202.744 66.8019 202.744 66.204V63.7618C202.744 63.1767 202.849 62.6519 203.058 62.1877C203.267 61.7235 203.556 61.3323 203.924 61.0142C204.292 60.696 204.716 60.4544 205.198 60.2889C205.681 60.1234 206.2 60.0407 206.758 60.0407C207.342 60.0407 207.881 60.1234 208.376 60.2889C208.87 60.4544 209.295 60.6929 209.65 61.0045C210.006 61.316 210.284 61.7006 210.487 62.1586C210.69 62.6166 210.792 63.1379 210.792 63.7229V65.5735H205.161L205.16 65.5747ZM208.375 63.8002C208.375 63.2661 208.216 62.8749 207.899 62.6267C207.582 62.3788 207.208 62.2545 206.777 62.2545C206.333 62.2545 205.952 62.3944 205.635 62.6745C205.318 62.9545 205.16 63.355 205.16 63.8764V63.991H208.375V63.8002ZM223.157 63.9723L221.559 66.4336L219.447 69.5817H217.336V60.1374H219.752V65.7087H219.847L221.216 63.6099L223.518 60.1374H225.668V69.5817H223.252V63.9727H223.157L223.157 63.9723ZM231.09 60.0228C231.56 60.0228 232.004 60.0799 232.422 60.1945C232.841 60.3087 233.205 60.4804 233.516 60.7096C233.826 60.9388 234.071 61.222 234.248 61.5588C234.426 61.896 234.515 62.2934 234.515 62.7514C234.515 63.12 234.407 63.4825 234.191 63.8387C233.976 64.1949 233.659 64.4812 233.24 64.6972C233.697 64.9135 234.033 65.2123 234.248 65.5937C234.464 65.9752 234.572 66.3505 234.572 66.7195C234.572 67.2156 234.477 67.6479 234.287 68.0166C234.096 68.3852 233.83 68.6941 233.488 68.9419C233.145 69.1901 232.739 69.3774 232.27 69.5048C231.801 69.6322 231.287 69.6955 230.729 69.6955C230.082 69.6955 229.423 69.6066 228.75 69.4286C228.078 69.2507 227.495 68.9706 227 68.5892L228.179 66.9293C228.522 67.1837 228.918 67.378 229.369 67.5112C229.819 67.6448 230.202 67.7116 230.52 67.7116C231.129 67.7116 231.56 67.613 231.813 67.4156C232.067 67.2187 232.194 66.9802 232.194 66.7001C232.194 66.0385 231.731 65.708 230.805 65.708H229.436V63.8954H230.767C231.173 63.8954 231.497 63.8095 231.738 63.6378C231.978 63.4661 232.099 63.2338 232.099 62.9417C232.099 62.6236 231.966 62.3948 231.7 62.2545C231.433 62.1147 231.129 62.0448 230.787 62.0448C230.469 62.0448 230.111 62.0988 229.712 62.2067C229.312 62.3151 228.947 62.5024 228.618 62.7696L227.457 61.1288C227.939 60.7345 228.504 60.4513 229.15 60.2796C229.797 60.1079 230.444 60.022 231.091 60.022L231.09 60.0228ZM246.938 69.5817V65.8039H243.475V69.5817H241.097V60.1374H243.475V63.7625H246.938V60.1374H249.373V69.5817H246.938ZM253.596 65.5747V65.88C253.596 66.1597 253.644 66.4014 253.739 66.6049C253.834 66.8085 253.961 66.9736 254.12 67.101C254.278 67.228 254.459 67.3232 254.662 67.3869C254.865 67.4506 255.08 67.4824 255.309 67.4824C255.575 67.4824 255.905 67.4409 256.298 67.3581C256.691 67.2754 257.109 67.0559 257.554 66.7001L258.885 68.36C258.594 68.6401 258.302 68.8658 258.01 69.0375C257.719 69.2092 257.427 69.3424 257.135 69.438C256.844 69.5331 256.549 69.5968 256.251 69.6287C255.952 69.6606 255.651 69.6765 255.347 69.6765C254.789 69.6765 254.259 69.6066 253.758 69.4667C253.258 69.3265 252.817 69.1136 252.436 68.8273C252.056 68.541 251.752 68.1817 251.523 67.7493C251.295 67.317 251.181 66.8019 251.181 66.204V63.7618C251.181 63.1767 251.286 62.6519 251.495 62.1877C251.704 61.7235 251.992 61.3323 252.36 61.0142C252.728 60.696 253.153 60.4544 253.635 60.2889C254.117 60.1234 254.637 60.0407 255.195 60.0407C255.779 60.0407 256.318 60.1234 256.813 60.2889C257.307 60.4544 257.732 60.6929 258.087 61.0045C258.442 61.316 258.721 61.7006 258.924 62.1586C259.127 62.6166 259.229 63.1379 259.229 63.7229V65.5735H253.598L253.596 65.5747ZM256.812 63.8002C256.812 63.2661 256.653 62.8749 256.336 62.6267C256.019 62.3788 255.645 62.2545 255.214 62.2545C254.77 62.2545 254.389 62.3944 254.072 62.6745C253.755 62.9545 253.596 63.355 253.596 63.8764V63.991H256.812V63.8002ZM269.197 66.2805C269.197 67.3107 268.917 68.1409 268.36 68.7706C267.801 69.4003 266.977 69.7149 265.886 69.7149C265.557 69.7149 265.167 69.6831 264.717 69.6198C264.266 69.5561 263.813 69.4034 263.356 69.1618V73.3595H260.94V60.1564H263.166L263.356 61.0149C263.889 60.6844 264.39 60.4424 264.859 60.2897C265.328 60.137 265.728 60.0605 266.058 60.0605C267.073 60.0605 267.849 60.3402 268.388 60.9C268.927 61.4597 269.197 62.3311 269.197 63.5139V66.2805ZM266.742 63.7241C266.742 63.1771 266.628 62.805 266.4 62.608C266.172 62.4107 265.893 62.3124 265.563 62.3124C265.41 62.3124 265.243 62.3346 265.059 62.3792C264.875 62.4235 264.681 62.4841 264.478 62.5606C264.275 62.6368 264.079 62.7226 263.889 62.8182C263.698 62.9137 263.521 63.0186 263.356 63.1332V66.892C263.787 67.0955 264.161 67.2323 264.478 67.3022C264.795 67.3721 265.1 67.4071 265.391 67.4071C265.759 67.4199 266.077 67.3181 266.343 67.1021C266.609 66.8858 266.742 66.5105 266.742 65.9764V63.7249V63.7241ZM275.722 69.5813V65.7845H275.265C275.037 65.7845 274.837 65.7973 274.666 65.8225C274.495 65.8482 274.339 65.9084 274.2 66.0036C274.06 66.0991 273.937 66.2328 273.829 66.4045C273.721 66.5762 273.629 66.8019 273.553 67.0819L272.811 69.5813H270.109L271.155 66.5097C271.307 66.0393 271.485 65.6477 271.688 65.3362C271.891 65.0243 272.227 64.7923 272.696 64.6397C272.303 64.487 272.001 64.2644 271.792 63.9719C271.583 63.679 271.402 63.3104 271.25 62.8652L270.28 60.1176H272.867L273.666 62.3501C273.856 62.8718 274.078 63.2148 274.332 63.3803C274.585 63.5458 274.909 63.6281 275.302 63.6281H275.721V60.1176H278.156V63.6281H278.575C278.981 63.6281 279.311 63.5454 279.564 63.3803C279.818 63.2148 280.033 62.8714 280.211 62.3501L281.01 60.1176H283.578L282.627 62.8652C282.462 63.3104 282.275 63.6794 282.066 63.9719C281.856 64.2644 281.555 64.487 281.162 64.6397C281.631 64.7923 281.967 65.0243 282.17 65.3362C282.373 65.6477 282.557 66.0389 282.722 66.5097L283.749 69.5813H281.047L280.324 67.0819C280.248 66.8022 280.156 66.5762 280.049 66.4045C279.94 66.2328 279.82 66.0995 279.687 66.0036C279.554 65.9084 279.399 65.8478 279.221 65.8225C279.043 65.7969 278.84 65.7845 278.612 65.7845H278.155V69.5813H275.72H275.722ZM290.58 68.7993C290.009 69.1299 289.496 69.3556 289.039 69.4768C288.582 69.5976 288.158 69.6582 287.764 69.6582C286.801 69.6582 286.055 69.4007 285.529 68.8856C285.003 68.3705 284.74 67.6677 284.74 66.7774C284.74 66.2557 284.848 65.8136 285.063 65.4516C285.278 65.0891 285.554 64.7931 285.89 64.5643C286.227 64.3351 286.598 64.17 287.004 64.0683C287.41 63.9665 287.796 63.9156 288.164 63.9156H290.599V63.5151C290.599 63.0699 290.473 62.7358 290.219 62.5132C289.965 62.2907 289.515 62.1796 288.868 62.1796C288.564 62.1796 288.187 62.2238 287.736 62.3128C287.286 62.4021 286.833 62.6309 286.376 62.9996L285.292 61.2251C285.951 60.7166 286.614 60.386 287.28 60.233C287.946 60.0803 288.558 60.0042 289.115 60.0042C290.46 60.0042 291.449 60.3091 292.083 60.9198C292.717 61.5304 293.035 62.4526 293.035 63.6864V69.5821H290.809L290.637 68.8188L290.58 68.7997L290.58 68.7993ZM290.618 65.7083H288.601C288.449 65.7083 288.3 65.7177 288.154 65.7371C288.008 65.7561 287.875 65.8008 287.755 65.8707C287.635 65.9406 287.536 66.0362 287.46 66.1566C287.384 66.2774 287.346 66.4332 287.346 66.6243C287.346 66.8788 287.438 67.0854 287.622 67.2443C287.806 67.4032 288.082 67.4828 288.449 67.4828C288.855 67.4828 289.255 67.4032 289.648 67.2443C290.041 67.0854 290.365 66.9359 290.618 66.7956V65.7083H290.618ZM302.927 66.7385C302.927 67.1328 302.863 67.5019 302.737 67.8453C302.61 68.1887 302.416 68.4909 302.157 68.7516C301.897 69.0122 301.573 69.2158 301.186 69.3622C300.799 69.5083 300.346 69.5817 299.826 69.5817H294.86V60.1374H299.788C300.282 60.1374 300.717 60.2042 301.091 60.3379C301.465 60.4711 301.776 60.6525 302.023 60.8813C302.27 61.1105 302.454 61.3805 302.574 61.692C302.695 62.004 302.755 62.3377 302.755 62.6939C302.755 62.8974 302.724 63.101 302.66 63.3045C302.597 63.5081 302.508 63.6957 302.394 63.8674C302.28 64.0391 302.146 64.1918 301.995 64.3254C301.842 64.459 301.684 64.5577 301.519 64.621V64.6401C301.95 64.818 302.293 65.0915 302.546 65.4605C302.8 65.8292 302.927 66.2553 302.927 66.7389L302.927 66.7385ZM300.454 66.6434C300.454 66.3505 300.352 66.1155 300.149 65.9375C299.947 65.7592 299.674 65.6703 299.331 65.6703H297.277V67.6165H299.274C299.68 67.6165 299.978 67.5271 300.168 67.3492C300.358 67.1713 300.454 66.9359 300.454 66.6434ZM300.34 62.9611C300.34 62.6939 300.248 62.4903 300.064 62.3505C299.88 62.2106 299.636 62.1407 299.332 62.1407H297.277V63.7435H299.37C299.687 63.7435 299.928 63.6732 300.093 63.5333C300.258 63.3935 300.34 63.2028 300.34 62.9611H300.34ZM306.979 65.5747V65.88C306.979 66.1597 307.027 66.4014 307.122 66.6049C307.217 66.8085 307.344 66.9736 307.503 67.101C307.661 67.228 307.842 67.3232 308.045 67.3869C308.247 67.4506 308.463 67.4824 308.691 67.4824C308.958 67.4824 309.288 67.4409 309.681 67.3581C310.074 67.2754 310.492 67.0559 310.936 66.7001L312.268 68.36C311.976 68.6401 311.685 68.8658 311.393 69.0375C311.101 69.2092 310.81 69.3424 310.518 69.438C310.226 69.5331 309.932 69.5968 309.633 69.6287C309.335 69.6606 309.034 69.6765 308.73 69.6765C308.172 69.6765 307.642 69.6066 307.141 69.4667C306.64 69.3265 306.2 69.1136 305.819 68.8273C305.439 68.541 305.134 68.1817 304.906 67.7493C304.678 67.317 304.564 66.8019 304.564 66.204V63.7618C304.564 63.1767 304.668 62.6519 304.878 62.1877C305.087 61.7235 305.375 61.3323 305.743 61.0142C306.111 60.696 306.536 60.4544 307.018 60.2889C307.5 60.1234 308.02 60.0407 308.578 60.0407C309.162 60.0407 309.7 60.1234 310.195 60.2889C310.69 60.4544 311.115 60.6929 311.47 61.0045C311.825 61.316 312.104 61.7006 312.307 62.1586C312.51 62.6166 312.612 63.1379 312.612 63.7229V65.5735H306.981L306.979 65.5747ZM310.195 63.8002C310.195 63.2661 310.036 62.8749 309.719 62.6267C309.402 62.3788 309.028 62.2545 308.596 62.2545C308.153 62.2545 307.772 62.3944 307.455 62.6745C307.138 62.9545 306.979 63.355 306.979 63.8764V63.991H310.195V63.8002ZM325.681 66.2615C325.681 66.7956 325.579 67.2758 325.376 67.7019C325.173 68.1281 324.894 68.4874 324.539 68.7799C324.184 69.0728 323.769 69.295 323.293 69.4477C322.817 69.6003 322.307 69.6769 321.762 69.6769C321.203 69.6769 320.684 69.5972 320.202 69.4384C319.72 69.2795 319.302 69.0534 318.946 68.7609C318.591 68.4684 318.312 68.1059 318.109 67.6736C317.906 67.2412 317.805 66.7576 317.805 66.2234V65.8035H316.721V69.5813H314.362V60.137H316.721V63.7812H317.805V63.4187C317.805 62.8846 317.913 62.4045 318.128 61.9783C318.344 61.5522 318.636 61.1929 319.003 60.9003C319.371 60.6078 319.793 60.3852 320.268 60.2326C320.744 60.0799 321.242 60.0038 321.762 60.0038C322.294 60.0038 322.798 60.0799 323.274 60.2326C323.75 60.3852 324.165 60.6078 324.52 60.9003C324.875 61.1932 325.157 61.5491 325.367 61.969C325.576 62.3889 325.681 62.8656 325.681 63.3997V66.2619V66.2615ZM323.302 63.8383C323.302 63.2404 323.15 62.8143 322.846 62.5599C322.541 62.3054 322.18 62.1784 321.761 62.1784C321.355 62.1784 320.991 62.3054 320.667 62.5599C320.344 62.8139 320.182 63.2404 320.182 63.8383V65.8987C320.182 66.4709 320.337 66.8815 320.648 67.1293C320.959 67.3776 321.33 67.5015 321.761 67.5015C322.154 67.5015 322.509 67.3776 322.827 67.1293C323.144 66.8815 323.302 66.4713 323.302 65.8987V63.8383ZM339.683 60.1366V67.5015H340.577V72.0612H338.408V69.5809H327.469V60.1366H329.866V67.463H332.358V60.1366H334.736V67.463H337.266V60.1366H339.683ZM344.172 65.5743V65.8797C344.172 66.1593 344.22 66.401 344.315 66.6045C344.41 66.8081 344.537 66.9732 344.696 67.1006C344.854 67.2276 345.035 67.3228 345.238 67.3865C345.441 67.4502 345.656 67.4821 345.885 67.4821C346.151 67.4821 346.481 67.4405 346.874 67.3577C347.267 67.275 347.686 67.0555 348.13 66.6997L349.462 68.3596C349.17 68.6397 348.878 68.8654 348.587 69.0371C348.295 69.2088 348.003 69.342 347.711 69.4376C347.42 69.5327 347.125 69.5965 346.827 69.6283C346.528 69.6602 346.227 69.6761 345.923 69.6761C345.365 69.6761 344.835 69.6062 344.334 69.4663C343.833 69.3261 343.393 69.1132 343.012 68.8269C342.632 68.5406 342.328 68.1813 342.099 67.7489C341.871 67.3166 341.757 66.8015 341.757 66.2036V63.7614C341.757 63.1763 341.862 62.6515 342.071 62.1873C342.28 61.7231 342.568 61.3319 342.936 61.0138C343.304 60.6956 343.729 60.454 344.211 60.2885C344.693 60.123 345.213 60.0403 345.771 60.0403C346.354 60.0403 346.894 60.123 347.388 60.2885C347.883 60.454 348.308 60.6925 348.663 61.0041C349.018 61.3156 349.297 61.7002 349.5 62.1582C349.703 62.6162 349.804 63.1375 349.804 63.7225V65.5732H344.173L344.172 65.5743ZM347.388 63.7998C347.388 63.2657 347.229 62.8745 346.912 62.6263C346.595 62.3784 346.221 62.2541 345.79 62.2541C345.346 62.2541 344.965 62.394 344.648 62.6741C344.331 62.9541 344.172 63.3546 344.172 63.876V63.9906H347.388V63.7998ZM355.721 58.8392C355.188 58.8392 354.741 58.7405 354.38 58.5436C354.018 58.3462 353.726 58.1046 353.504 57.8183C353.282 57.532 353.12 57.2204 353.019 56.8833C352.917 56.5461 352.854 56.2376 352.829 55.9579H354.579C354.579 56.0854 354.604 56.2221 354.655 56.3682C354.706 56.5142 354.779 56.6514 354.874 56.7784C354.969 56.9058 355.086 57.0107 355.226 57.093C355.366 57.1758 355.53 57.2173 355.721 57.2173C355.924 57.2173 356.098 57.1758 356.244 57.093C356.39 57.0103 356.51 56.9054 356.605 56.7784C356.7 56.6514 356.773 56.5142 356.824 56.3682C356.875 56.2217 356.9 56.085 356.9 55.9579H358.632C358.594 56.2376 358.523 56.5461 358.422 56.8833C358.321 57.2204 358.159 57.532 357.937 57.8183C357.715 58.1042 357.426 58.3462 357.071 58.5436C356.716 58.7405 356.266 58.8392 355.721 58.8392ZM357.337 63.9715L355.74 66.4328L353.628 69.5809H351.516V60.1366H353.932V65.708H354.027L355.397 63.6091L357.699 60.1366H359.849V69.5809H357.432V63.9719H357.337L357.337 63.9715Z" fill="#4C4B4D"/>
<path d="M373.928 68.2842C373.649 68.5767 373.363 68.8152 373.072 68.9998C372.78 69.1843 372.482 69.3272 372.178 69.429C371.873 69.5308 371.572 69.5976 371.274 69.6295C370.976 69.6613 370.675 69.6772 370.37 69.6772C369.85 69.6772 369.356 69.6073 368.886 69.4675C368.417 69.3272 368.005 69.1144 367.65 68.8281C367.295 68.5418 367.013 68.1855 366.803 67.7598C366.594 67.3337 366.49 66.8345 366.49 66.2619V63.4762C366.49 62.904 366.603 62.4013 366.832 61.969C367.061 61.5366 367.358 61.1773 367.726 60.891C368.094 60.6051 368.509 60.3887 368.972 60.2423C369.435 60.0958 369.901 60.0228 370.37 60.0228C370.662 60.0228 370.96 60.0356 371.264 60.0609C371.569 60.0865 371.87 60.1436 372.168 60.2326C372.466 60.3215 372.761 60.452 373.053 60.6237C373.344 60.7954 373.63 61.0274 373.909 61.3199L372.52 63.0944C372.076 62.7001 371.699 62.4616 371.388 62.3788C371.077 62.2961 370.808 62.2545 370.58 62.2545C370.389 62.2545 370.193 62.2833 369.99 62.3404C369.787 62.3975 369.606 62.493 369.448 62.6263C369.289 62.7599 369.159 62.9316 369.058 63.1414C368.956 63.3511 368.905 63.6021 368.905 63.895V65.7837C368.905 66.089 368.953 66.3466 369.048 66.5563C369.143 66.7665 369.267 66.9378 369.419 67.0714C369.572 67.2051 369.746 67.3006 369.942 67.3573C370.139 67.4144 370.339 67.4432 370.542 67.4432C370.795 67.4432 371.102 67.3861 371.464 67.2715C371.826 67.1569 372.165 66.9409 372.482 66.6228L373.928 68.2827L373.928 68.2842ZM379.483 62.1788V69.5813H377.067V62.1788H374.384V60.137H382.166V62.1788H379.483ZM388.311 68.7993C387.74 69.1299 387.226 69.3556 386.77 69.4768C386.313 69.5976 385.889 69.6582 385.495 69.6582C384.531 69.6582 383.786 69.4007 383.26 68.8856C382.734 68.3705 382.47 67.6677 382.47 66.7774C382.47 66.2557 382.578 65.8136 382.794 65.4516C383.009 65.0891 383.285 64.7931 383.621 64.5643C383.957 64.3351 384.328 64.17 384.734 64.0682C385.14 63.9665 385.527 63.9156 385.895 63.9156H388.33V63.5151C388.33 63.0699 388.203 62.7358 387.95 62.5132C387.696 62.2906 387.246 62.1795 386.599 62.1795C386.295 62.1795 385.918 62.2238 385.467 62.3128C385.017 62.4021 384.563 62.6309 384.107 62.9996L383.022 61.2251C383.682 60.7166 384.345 60.386 385.01 60.233C385.676 60.0803 386.288 60.0042 386.846 60.0042C388.191 60.0042 389.18 60.3091 389.814 60.9198C390.448 61.5304 390.766 62.4526 390.766 63.6864V69.5821H388.539L388.368 68.8187L388.311 68.7997L388.311 68.7993ZM388.349 65.7083H386.332C386.18 65.7083 386.031 65.7176 385.885 65.7371C385.739 65.7561 385.606 65.8008 385.486 65.8707C385.365 65.9406 385.267 66.0362 385.191 66.1566C385.115 66.2774 385.077 66.4332 385.077 66.6243C385.077 66.8788 385.168 67.0854 385.352 67.2443C385.536 67.4032 385.812 67.4828 386.18 67.4828C386.586 67.4828 386.985 67.4032 387.379 67.2443C387.772 67.0854 388.095 66.9359 388.349 66.7956V65.7083H388.349ZM395.939 64.2582C395.939 65.9752 395.651 67.2855 395.074 68.1887C394.496 69.0914 393.542 69.6388 392.21 69.8295L391.716 67.9214C392.083 67.8072 392.388 67.6704 392.629 67.5112C392.87 67.3523 393.06 67.139 393.199 66.8722C393.339 66.6049 393.437 66.265 393.494 65.8513C393.551 65.438 393.58 64.926 393.58 64.3153V60.1366H400.676V69.5809H398.26V62.1784H395.939V64.2578V64.2582ZM408.476 63.9723L406.879 66.4336L404.767 69.5817H402.655V60.1374H405.071V65.7087H405.166L406.536 63.6099L408.838 60.1374H410.988V69.5817H408.571V63.9727H408.476L408.476 63.9723Z" fill="#4C4B4D"/>
<path d="M101.569 49.8766C100.057 49.8766 98.6587 49.4831 97.3751 48.6964C96.091 47.9094 95.0711 46.8508 94.3151 45.5204C93.559 44.1899 93.1809 42.7378 93.1809 41.1641V28.5461C93.1809 26.9725 93.559 25.5204 94.3151 24.1899C95.0711 22.8594 96.091 21.8009 97.3751 21.0138C98.6591 20.2268 100.057 19.8333 101.569 19.8333H124.635C124.863 19.8333 125.056 19.9122 125.213 20.0695C125.37 20.2268 125.448 20.4199 125.448 20.6487V28.4168C125.448 28.646 125.37 28.839 125.213 28.9964C125.056 29.1537 124.863 29.2321 124.635 29.2321H104.137C103.908 29.2321 103.715 29.311 103.559 29.4683C103.402 29.6257 103.323 29.8187 103.323 30.0475V39.4468C103.323 39.6756 103.402 39.8686 103.559 40.0263C103.715 40.1837 103.908 40.2621 104.137 40.2621H124.635C124.863 40.2621 125.056 40.3406 125.213 40.4979C125.37 40.6553 125.448 40.8487 125.448 41.0775V49.06C125.448 49.2888 125.37 49.4819 125.213 49.6396C125.056 49.7969 124.863 49.8754 124.635 49.8754H101.569V49.8766ZM139.913 49.8766C139.713 49.8766 139.556 49.8121 139.442 49.6835C139.328 49.5549 139.271 49.4046 139.271 49.2329V29.7908C139.271 29.6191 139.214 29.4761 139.1 29.3615C138.985 29.2473 138.843 29.1898 138.672 29.1898H128.187C128.045 29.1898 127.902 29.1183 127.759 28.9754C127.645 28.8037 127.588 28.6463 127.588 28.5034V20.4778C127.588 20.3348 127.645 20.1771 127.759 20.0058C127.873 19.8912 128.016 19.8341 128.187 19.8341H160.454C160.625 19.8341 160.768 19.8912 160.882 20.0058C160.996 20.1775 161.053 20.3348 161.053 20.4778V28.5034C161.053 28.6463 160.996 28.8037 160.882 28.9754C160.739 29.1183 160.597 29.1898 160.454 29.1898H149.969C149.826 29.1898 149.691 29.2469 149.563 29.3615C149.434 29.4761 149.37 29.6191 149.37 29.7908V49.2329C149.37 49.4046 149.313 49.5545 149.199 49.6835C149.085 49.8121 148.928 49.8766 148.728 49.8766H139.913Z" fill="#1A60B0"/>
<path d="M290.293 19.8337C290.493 19.8337 290.65 19.8908 290.764 20.0054C290.878 20.12 290.935 20.2629 290.935 20.4346V49.2325C290.935 49.4042 290.871 49.5541 290.743 49.6831C290.614 49.8117 290.45 49.8762 290.251 49.8762H281.435C281.264 49.8762 281.114 49.8117 280.986 49.6831C280.858 49.5545 280.793 49.4042 280.793 49.2325V30.091C280.793 29.9193 280.736 29.7764 280.622 29.6618C280.508 29.5472 280.365 29.4901 280.194 29.4901H268.297C268.154 29.4901 268.019 29.5472 267.891 29.6618C267.762 29.776 267.698 29.9193 267.698 30.091V49.2325C267.698 49.4042 267.641 49.5541 267.527 49.6831C267.413 49.8117 267.27 49.8762 267.099 49.8762H258.198C258.026 49.8762 257.877 49.8117 257.748 49.6831C257.62 49.5545 257.556 49.4042 257.556 49.2325V20.4346C257.556 20.2629 257.613 20.12 257.727 20.0054C257.841 19.8908 257.984 19.8337 258.155 19.8337H290.294H290.293Z" fill="#1A60B0"/>
<path d="M249.462 39.8018C249.462 41.9764 248.998 43.829 248.071 45.3595C247.143 46.8901 245.902 48.0489 244.347 48.8359C242.793 49.6225 241.102 50.016 239.276 50.016H219.463C219.263 50.016 219.092 49.9445 218.949 49.8016C218.806 49.6586 218.735 49.4869 218.735 49.2865V20.7462C218.735 20.517 218.806 20.3383 218.949 20.2097C219.092 20.0811 219.263 20.0167 219.463 20.0167H228.15C228.35 20.0167 228.521 20.0881 228.664 20.2311C228.806 20.374 228.877 20.5457 228.877 20.7462V28.7287C228.877 28.9575 228.934 29.1292 229.049 29.2438C229.191 29.3871 229.362 29.4586 229.562 29.4586L239.276 29.5013C241.045 29.5013 242.714 29.945 244.283 30.8318C245.852 31.7187 247.108 32.9489 248.049 34.5226C248.991 36.0963 249.461 37.856 249.461 39.8014L249.462 39.8018ZM239.02 39.5443C239.02 39.2009 238.899 38.9219 238.656 38.7075C238.414 38.4931 238.078 38.3859 237.651 38.3859L229.776 38.3427C229.605 38.3427 229.477 38.3859 229.391 38.4713C229.277 38.5859 229.22 38.6858 229.22 38.7716V40.2307C229.22 40.3165 229.277 40.4167 229.391 40.5313C229.477 40.6172 229.605 40.6599 229.776 40.6599H237.651C238.107 40.6599 238.449 40.5527 238.678 40.3379C238.906 40.1235 239.02 39.8585 239.02 39.5439L239.02 39.5443Z" fill="#1A60B0"/>
<path d="M294.158 49.8766C293.958 49.8766 293.788 49.8051 293.645 49.6622C293.502 49.5192 293.431 49.3475 293.431 49.1471V20.5636C293.431 20.3632 293.502 20.1989 293.645 20.0703C293.787 19.9417 293.958 19.8772 294.158 19.8772L317.695 19.8341C319.521 19.8341 321.212 20.2276 322.766 21.0146C324.321 21.8013 325.562 22.9674 326.489 24.5124C327.417 26.0573 327.88 27.9172 327.88 30.0914C327.88 32.0369 327.41 33.7966 326.468 35.3703C325.526 36.9439 324.272 38.1742 322.702 39.061C321.133 39.9479 319.464 40.3915 317.696 40.3915L304.301 40.4342C304.101 40.4342 303.93 40.5061 303.787 40.6491C303.645 40.792 303.573 40.9637 303.573 41.1642V49.1467C303.573 49.3471 303.502 49.5188 303.36 49.6618C303.217 49.8047 303.046 49.8762 302.846 49.8762H294.159L294.158 49.8766ZM316.069 31.4647C316.497 31.4647 316.832 31.3574 317.075 31.1426C317.317 30.9282 317.438 30.6633 317.438 30.3486C317.438 30.034 317.325 29.769 317.096 29.5546C316.868 29.3402 316.525 29.2326 316.069 29.2326H304.514C304.343 29.2326 304.214 29.2757 304.129 29.3611C304.015 29.447 303.958 29.5472 303.958 29.6618V31.0781C303.958 31.1927 304.015 31.2926 304.129 31.3788C304.215 31.4647 304.343 31.5074 304.514 31.5074L316.069 31.4647H316.069Z" fill="#1A60B0"/>
<path d="M159.935 49.8979C159.593 49.8979 159.329 49.7694 159.144 49.5118C158.958 49.2543 158.894 48.954 158.951 48.6106L166.44 20.5854C166.497 20.3566 166.618 20.1775 166.804 20.0489C166.99 19.9203 167.196 19.8559 167.425 19.8559H183.772C184 19.8559 184.214 19.9277 184.414 20.0707C184.614 20.2136 184.728 20.3853 184.756 20.5858L192.246 48.611C192.331 48.9544 192.274 49.2547 192.074 49.5122C191.874 49.7698 191.604 49.8983 191.261 49.8983H182.66C182.431 49.8983 182.224 49.8339 182.039 49.7053C181.854 49.5767 181.732 49.3976 181.675 49.1688L181.076 46.8512C181.048 46.7366 180.976 46.6364 180.862 46.5506C180.748 46.4647 180.62 46.422 180.477 46.422H170.72C170.578 46.422 170.449 46.4651 170.335 46.5506C170.221 46.6364 170.15 46.7366 170.121 46.8512C170.064 47.1088 170.007 47.3232 169.95 47.4949C169.893 47.6666 169.85 47.8239 169.821 47.9669C169.622 48.7108 169.508 49.2115 169.479 49.4691C169.393 49.755 169.194 49.8983 168.88 49.8983H159.936L159.935 49.8979ZM177.695 37.1086C177.895 37.1086 178.052 37.0301 178.166 36.8724C178.28 36.7151 178.308 36.522 178.251 36.2932L176.411 29.4691C176.383 29.2974 176.268 29.2116 176.069 29.2116H175.127C174.956 29.2116 174.842 29.2974 174.785 29.4691L172.945 36.2932V36.4649C172.945 36.6366 172.995 36.787 173.094 36.9156C173.194 37.0441 173.33 37.1086 173.501 37.1086H177.695ZM228.107 19.8555C228.306 19.8555 228.471 19.9126 228.599 20.0272C228.727 20.1418 228.791 20.2847 228.791 20.4564V49.2974C228.791 49.4691 228.727 49.612 228.599 49.7266C228.471 49.8412 228.306 49.8983 228.107 49.8983H219.634C219.434 49.8983 219.263 49.8339 219.12 49.7053C218.978 49.5767 218.906 49.4407 218.906 49.2974V29.3837C218.906 29.2407 218.849 29.1047 218.735 28.9758C218.621 28.8472 218.478 28.7827 218.307 28.7827H211.588C211.303 28.7827 211.103 28.9544 210.989 29.2978L208.465 43.3318C207.98 45.2488 206.988 46.8225 205.49 48.0528C203.992 49.283 202.273 49.8983 200.334 49.8983H195.027C194.884 49.8983 194.749 49.8412 194.62 49.7266C194.492 49.6124 194.428 49.4691 194.428 49.2974V40.6708C194.428 40.5279 194.492 40.3919 194.62 40.2629C194.749 40.1343 194.884 40.0699 195.027 40.0699H199.05L202.473 20.4564C202.502 20.2847 202.58 20.1418 202.709 20.0272C202.837 19.9126 202.987 19.8555 203.158 19.8555H228.107H228.107Z" fill="#1A60B0"/>
<path d="M337.769 49.8765C336.257 49.8765 334.859 49.483 333.575 48.6964C332.291 47.9094 331.271 46.8508 330.515 45.5203C329.759 44.1899 329.381 42.7378 329.381 41.1641V28.5892C329.381 26.9872 329.759 25.5204 330.515 24.1903C331.271 22.8598 332.291 21.8012 333.575 21.0142C334.859 20.2272 336.257 19.8337 337.769 19.8337H356.042C357.583 19.8337 358.995 20.2272 360.279 21.0142C361.563 21.8009 362.575 22.8598 363.317 24.1903C364.059 25.5208 364.43 26.9872 364.43 28.5892V41.1641C364.43 42.7378 364.059 44.1899 363.317 45.5203C362.575 46.8508 361.563 47.9094 360.279 48.6964C358.995 49.483 357.583 49.8765 356.042 49.8765H337.769ZM352.875 39.7909C353.275 39.7909 353.617 39.6406 353.903 39.3403C354.188 39.0396 354.331 38.6609 354.331 38.2029V31.3792C354.331 30.9212 354.188 30.535 353.903 30.2204C353.617 29.9057 353.275 29.7484 352.875 29.7484H341.021C340.622 29.7484 340.273 29.9057 339.973 30.2204C339.673 30.535 339.524 30.9212 339.524 31.3792V38.2029C339.524 38.6609 339.673 39.0396 339.973 39.3403C340.273 39.6406 340.622 39.7909 341.021 39.7909H352.875ZM392.845 20.2633C392.874 19.9774 393.059 19.8341 393.401 19.8341H410.391C410.562 19.8341 410.704 19.8986 410.819 20.0271C410.933 20.1557 410.99 20.306 410.99 20.4777V49.1897C410.99 49.3902 410.933 49.5545 410.819 49.6831C410.704 49.8117 410.548 49.8762 410.348 49.8762H401.318C401.118 49.8762 400.962 49.8117 400.848 49.6831C400.734 49.5545 400.677 49.3898 400.677 49.1897V31.1212C400.677 31.0066 400.612 30.9421 400.484 30.9282C400.356 30.9138 400.277 30.9639 400.249 31.0785L399.265 34.7697C397.182 42.4091 395.884 47.2875 395.37 49.4046C395.342 49.5192 395.278 49.619 395.178 49.7048C395.078 49.7907 394.957 49.8334 394.814 49.8334H382.703C382.59 49.8334 382.475 49.7907 382.361 49.7048C382.247 49.619 382.176 49.5192 382.147 49.4046C381.634 47.4304 380.193 42.0797 377.825 33.3533L377.269 31.2506C377.24 31.136 377.169 31.0789 377.055 31.0789C376.941 31.0789 376.884 31.1504 376.884 31.2933V49.1901C376.884 49.3906 376.819 49.5549 376.691 49.6835C376.563 49.8121 376.427 49.8765 376.285 49.8765H367.212C367.041 49.8765 366.891 49.8121 366.763 49.6835C366.635 49.5549 366.571 49.3902 366.571 49.1901V20.4781C366.571 20.3064 366.628 20.1561 366.742 20.0275C366.856 19.8989 366.984 19.8345 367.127 19.8345H384.116C384.458 19.8345 384.644 19.9778 384.672 20.2637L388.567 35.5854C388.624 35.7 388.688 35.7571 388.759 35.7571C388.83 35.7571 388.88 35.7 388.909 35.5854L392.846 20.2637L392.845 20.2633Z" fill="#1A60B0"/>
</g>
<defs>
<clipPath id="clip0_6_1140">
<rect width="410.99" height="88.9978" fill="white"/>
</clipPath>
</defs>
</svg>
