<svg width="412" height="89" viewBox="0 0 412 89" fill="none" xmlns="http://www.w3.org/2000/svg">
<g clip-path="url(#clip0_10_1180)">
<path fill-rule="evenodd" clip-rule="evenodd" d="M38.4717 6.29712C49.481 12.6642 60.49 19.0312 71.4994 25.3983V63.6013C60.49 69.9684 49.481 76.3354 38.4717 82.7025C27.4623 76.3354 16.4534 69.9684 5.44399 63.6013V25.3983C16.4534 19.0312 27.4623 12.6638 38.4717 6.29712ZM38.4717 0C25.6474 7.41631 12.8239 14.8334 0 22.2497V66.7499C12.8239 74.1666 25.6478 81.5837 38.4717 88.9996C51.2956 81.5829 64.1195 74.1662 76.9434 66.7499V22.2497C64.1195 14.833 51.2956 7.4167 38.4717 0Z" fill="white"/>
<path fill-rule="evenodd" clip-rule="evenodd" d="M58.2264 33.0752C58.2264 44.6066 58.2264 56.1384 58.2264 67.6698L68.3803 61.7977V27.2031C58.7903 21.6569 49.2003 16.1107 39.6107 10.5645C39.6107 33.1883 39.6107 55.8125 39.6107 78.4367L49.7646 72.5645C49.7646 57.7704 49.7646 42.9758 49.7646 28.1817L58.2268 33.0756L58.2264 33.0752ZM37.3335 57.4549L27.1797 51.5828V60.8191L18.7178 55.9251V33.0752L27.1797 28.1813V37.4176L37.3335 31.5454V10.5641C27.7435 16.1103 18.1535 21.6565 8.56391 27.2027V61.7973C18.1539 67.3435 27.7439 72.8897 37.3335 78.4359V57.4545V57.4549Z" fill="white"/>
<path d="M101.558 66.2251C101.558 66.8101 101.441 67.319 101.206 67.7514C100.971 68.1837 100.66 68.5431 100.273 68.8294C99.8855 69.1153 99.4446 69.3286 98.9493 69.4688C98.4541 69.6086 97.9461 69.6786 97.4257 69.6786C96.8924 69.6786 96.3778 69.6086 95.883 69.4688C95.3877 69.3286 94.9464 69.1157 94.559 68.8294C94.1716 68.5431 93.8637 68.1837 93.6353 67.7514C93.4065 67.319 93.2924 66.8101 93.2924 66.2251V63.4964C93.2924 62.9114 93.4099 62.4025 93.6446 61.9701C93.8796 61.5378 94.1906 61.1784 94.578 60.8921C94.9654 60.6062 95.4098 60.3898 95.9117 60.2434C96.4131 60.0969 96.9242 60.0239 97.445 60.0239C98.0039 60.0239 98.534 60.0969 99.0354 60.2434C99.5369 60.3898 99.9751 60.6093 100.35 60.9014C100.724 61.1943 101.019 61.5599 101.235 61.9989C101.451 62.4375 101.559 62.9495 101.559 63.5349V66.2251H101.558ZM99.1394 63.9164C99.1394 63.611 99.0886 63.3566 98.9869 63.153C98.8853 62.9495 98.7519 62.7809 98.5867 62.6472C98.4215 62.514 98.2408 62.4184 98.0442 62.3613C97.8472 62.3042 97.6475 62.2755 97.4443 62.2755C97.2411 62.2755 97.0347 62.3038 96.8253 62.3613C96.6155 62.4184 96.4286 62.514 96.2634 62.6472C96.0982 62.7809 95.9648 62.9495 95.8636 63.153C95.762 63.3566 95.7112 63.611 95.7112 63.9164V65.7861C95.7112 66.0914 95.7585 66.349 95.8539 66.5587C95.9489 66.7689 96.0792 66.9402 96.2444 67.0739C96.4096 67.2075 96.5934 67.3031 96.7966 67.3598C96.9998 67.4169 97.2158 67.4456 97.4443 67.4456C97.6475 67.4456 97.8476 67.4169 98.0442 67.3598C98.2408 67.3027 98.4219 67.2071 98.5867 67.0739C98.7519 66.9402 98.885 66.7685 98.9869 66.5587C99.0886 66.349 99.1394 66.0914 99.1394 65.7861V63.9164ZM105.825 61.1497C105.952 61.0479 106.098 60.9589 106.263 60.8824C106.429 60.8063 106.6 60.7394 106.778 60.6819C106.955 60.6248 107.133 60.5833 107.311 60.558C107.488 60.5324 107.654 60.52 107.806 60.52C108.352 60.52 108.85 60.593 109.301 60.7394C109.752 60.8859 110.136 61.105 110.454 61.3979C110.771 61.6904 111.019 62.0657 111.197 62.5237C111.375 62.9817 111.463 63.5158 111.463 64.1265V66.1108C111.463 66.6959 111.349 67.211 111.121 67.6562C110.892 68.1014 110.587 68.4735 110.207 68.7723C109.825 69.0714 109.384 69.2967 108.883 69.4498C108.381 69.6024 107.851 69.679 107.293 69.679C106.683 69.679 106.124 69.6028 105.616 69.4498C105.108 69.2971 104.673 69.0714 104.312 68.7723C103.95 68.4735 103.67 68.1014 103.474 67.6562C103.277 67.211 103.179 66.6959 103.179 66.1108V63.8212C103.179 63.1472 103.204 62.5365 103.255 61.9899C103.306 61.4426 103.388 60.9469 103.502 60.5017C103.617 60.0565 103.772 59.6525 103.969 59.2901C104.166 58.9276 104.41 58.5873 104.702 58.2695C104.906 58.0403 105.141 57.8372 105.407 57.6589C105.674 57.4809 105.953 57.3155 106.245 57.1628C106.537 57.0101 106.839 56.8703 107.15 56.7428C107.461 56.6158 107.769 56.495 108.074 56.3804C108.455 56.2277 108.798 56.0945 109.102 55.9795C109.407 55.8653 109.743 55.7188 110.112 55.5405L110.912 57.4868C110.671 57.5885 110.461 57.6779 110.283 57.754C110.106 57.8302 109.937 57.9005 109.778 57.9638C109.62 58.0275 109.467 58.0877 109.322 58.1452C109.175 58.2023 109.02 58.2629 108.855 58.3266C108.474 58.4793 108.108 58.6351 107.759 58.7944C107.41 58.9533 107.096 59.1378 106.816 59.3475C106.537 59.5573 106.305 59.8025 106.121 60.0821C105.937 60.3622 105.813 60.699 105.749 61.0933L105.825 61.1504L105.825 61.1497ZM109.063 64.4315C109.063 63.8336 108.895 63.4044 108.559 63.1437C108.222 62.883 107.819 62.7525 107.349 62.7525C107.146 62.7525 106.94 62.7875 106.73 62.8574C106.52 62.9273 106.334 63.0353 106.168 63.1818C106.003 63.3278 105.87 63.5092 105.768 63.7252C105.666 63.9416 105.616 64.2023 105.616 64.5076V65.8047C105.616 66.1101 105.663 66.3645 105.758 66.5681C105.853 66.7716 105.977 66.9402 106.13 67.0739C106.282 67.2075 106.46 67.3031 106.663 67.3598C106.866 67.4169 107.082 67.4456 107.311 67.4456C107.527 67.4456 107.739 67.4169 107.949 67.3598C108.159 67.3027 108.346 67.2071 108.511 67.0739C108.676 66.9402 108.809 66.7716 108.911 66.5681C109.012 66.3645 109.063 66.1104 109.063 65.8047V64.4311V64.4315ZM121.349 66.2251C121.349 66.8101 121.231 67.319 120.996 67.7514C120.761 68.1837 120.45 68.5431 120.063 68.8294C119.676 69.1153 119.235 69.3286 118.739 69.4688C118.244 69.6086 117.736 69.6786 117.215 69.6786C116.682 69.6786 116.168 69.6086 115.673 69.4688C115.177 69.3286 114.736 69.1157 114.349 68.8294C113.962 68.5431 113.654 68.1837 113.425 67.7514C113.196 67.319 113.082 66.8101 113.082 66.2251V63.4964C113.082 62.9114 113.2 62.4025 113.434 61.9701C113.669 61.5378 113.98 61.1784 114.368 60.8921C114.755 60.6062 115.199 60.3898 115.701 60.2434C116.202 60.0969 116.713 60.0239 117.234 60.0239C117.793 60.0239 118.323 60.0969 118.825 60.2434C119.326 60.3898 119.764 60.6093 120.139 60.9014C120.514 61.1943 120.809 61.5599 121.025 61.9989C121.241 62.4375 121.348 62.9495 121.348 63.5349V66.2251H121.349ZM118.93 63.9164C118.93 63.611 118.879 63.3566 118.777 63.153C118.676 62.9495 118.542 62.7809 118.378 62.6472C118.212 62.514 118.032 62.4184 117.835 62.3613C117.638 62.3042 117.438 62.2755 117.235 62.2755C117.031 62.2755 116.825 62.3038 116.615 62.3613C116.406 62.4184 116.219 62.514 116.054 62.6472C115.889 62.7809 115.755 62.9495 115.654 63.153C115.552 63.3566 115.501 63.611 115.501 63.9164V65.7861C115.501 66.0914 115.548 66.349 115.644 66.5587C115.739 66.7689 115.869 66.9402 116.034 67.0739C116.2 67.2075 116.383 67.3031 116.587 67.3598C116.79 67.4169 117.006 67.4456 117.234 67.4456C117.437 67.4456 117.638 67.4169 117.834 67.3598C118.031 67.3027 118.212 67.2071 118.377 67.0739C118.542 66.9402 118.675 66.7685 118.777 66.5587C118.879 66.349 118.929 66.0914 118.929 65.7861V63.9164H118.93ZM131.387 66.2822C131.387 67.3124 131.107 68.1425 130.549 68.7723C129.99 69.402 129.165 69.7166 128.073 69.7166C127.743 69.7166 127.352 69.6848 126.901 69.6215C126.45 69.5577 125.996 69.4051 125.539 69.1635V73.3613H123.12V60.1579H125.349L125.539 61.0164C126.073 60.6858 126.575 60.4438 127.044 60.2911C127.514 60.1385 127.914 60.0619 128.244 60.0619C129.26 60.0619 130.038 60.3416 130.577 60.9014C131.117 61.4612 131.387 62.3326 131.387 63.5155V66.2822ZM128.93 63.7256C128.93 63.1787 128.815 62.8065 128.586 62.6095C128.358 62.4122 128.079 62.3139 127.748 62.3139C127.596 62.3139 127.428 62.3361 127.243 62.3807C127.059 62.425 126.866 62.4856 126.663 62.5622C126.459 62.6383 126.263 62.7241 126.072 62.8197C125.882 62.9153 125.704 63.0202 125.539 63.1348V66.8936C125.971 67.0972 126.345 67.2339 126.663 67.3038C126.98 67.3738 127.285 67.4087 127.577 67.4087C127.945 67.4215 128.263 67.3198 128.529 67.1038C128.796 66.8874 128.93 66.5121 128.93 65.978V63.7264V63.7256ZM134.053 73.3803L135.501 69.3732L134.948 68.9533L132.358 60.1191H134.853L135.729 63.6868L136.548 66.8349H136.605L137.653 63.6487L138.796 60.1191H141.31L136.491 73.3799H134.053V73.3803ZM145.481 62.1422L145.367 63.9929C145.329 64.6416 145.266 65.2776 145.177 65.9011C145.088 66.5246 144.916 67.0587 144.662 67.5039H148.32V62.1426H145.482L145.481 62.1422ZM141.177 67.5225C141.303 67.5225 141.427 67.5225 141.548 67.5225C141.669 67.5225 141.786 67.5163 141.9 67.5035C142.243 67.2491 142.507 66.8579 142.69 66.3299C142.875 65.802 143.011 65.1979 143.1 64.5173C143.189 63.8367 143.249 63.1181 143.281 62.3613C143.313 61.6046 143.348 60.8634 143.386 60.1385H150.662V67.5035H151.557V72.0444H149.405V69.583H143.328V72.0444H141.176V67.5225H141.177ZM161.119 66.2251C161.119 66.8101 161.001 67.319 160.766 67.7514C160.531 68.1837 160.22 68.5431 159.833 68.8294C159.446 69.1153 159.005 69.3286 158.509 69.4688C158.014 69.6086 157.506 69.6786 156.986 69.6786C156.452 69.6786 155.938 69.6086 155.443 69.4688C154.948 69.3286 154.506 69.1157 154.119 68.8294C153.732 68.5431 153.424 68.1837 153.195 67.7514C152.967 67.319 152.853 66.8101 152.853 66.2251V63.4964C152.853 62.9114 152.97 62.4025 153.205 61.9701C153.44 61.5378 153.751 61.1784 154.138 60.8921C154.525 60.6062 154.97 60.3898 155.471 60.2434C155.973 60.0969 156.484 60.0239 157.005 60.0239C157.564 60.0239 158.093 60.0969 158.595 60.2434C159.097 60.3898 159.535 60.6093 159.909 60.9014C160.284 61.1943 160.579 61.5599 160.795 61.9989C161.011 62.4375 161.119 62.9495 161.119 63.5349V66.2251ZM158.7 63.9164C158.7 63.611 158.649 63.3566 158.547 63.153C158.446 62.9495 158.312 62.7809 158.148 62.6472C157.982 62.514 157.802 62.4184 157.605 62.3613C157.408 62.3042 157.208 62.2755 157.005 62.2755C156.802 62.2755 156.595 62.3038 156.386 62.3613C156.176 62.4184 155.989 62.514 155.824 62.6472C155.659 62.7809 155.525 62.9495 155.424 63.153C155.322 63.3566 155.271 63.611 155.271 63.9164V65.7861C155.271 66.0914 155.319 66.349 155.414 66.5587C155.509 66.7689 155.639 66.9402 155.804 67.0739C155.97 67.2075 156.153 67.3031 156.357 67.3598C156.56 67.4169 156.776 67.4456 157.004 67.4456C157.208 67.4456 157.408 67.4169 157.604 67.3598C157.801 67.3027 157.982 67.2071 158.147 67.0739C158.312 66.9402 158.445 66.7685 158.547 66.5587C158.649 66.349 158.699 66.0914 158.699 65.7861V63.9164H158.7ZM170.909 66.7402C170.909 67.1345 170.846 67.5035 170.719 67.8469C170.592 68.1903 170.398 68.4926 170.138 68.7532C169.877 69.0139 169.554 69.2174 169.166 69.3639C168.779 69.51 168.325 69.5834 167.805 69.5834H162.833V60.1389H167.766C168.261 60.1389 168.697 60.2057 169.071 60.3393C169.445 60.4726 169.756 60.654 170.004 60.8828C170.252 61.112 170.436 61.382 170.557 61.6935C170.677 62.0055 170.738 62.3392 170.738 62.6954C170.738 62.899 170.706 63.1025 170.643 63.3061C170.579 63.5096 170.49 63.6973 170.376 63.869C170.262 64.0407 170.128 64.1933 169.976 64.327C169.824 64.4606 169.665 64.5593 169.5 64.6226V64.6416C169.931 64.8196 170.275 65.093 170.528 65.4621C170.782 65.8308 170.909 66.2569 170.909 66.7406V66.7402ZM168.433 66.645C168.433 66.3521 168.331 66.1171 168.128 65.9391C167.925 65.7608 167.652 65.6719 167.309 65.6719H165.252V67.6181H167.252C167.658 67.6181 167.957 67.5288 168.147 67.3508C168.338 67.1729 168.433 66.9375 168.433 66.645ZM168.319 62.9627C168.319 62.6954 168.227 62.4918 168.043 62.352C167.859 62.2121 167.614 62.1422 167.309 62.1422H165.252V63.745H167.347C167.665 63.745 167.906 63.6747 168.071 63.5349C168.237 63.395 168.319 63.2043 168.319 62.9627H168.319ZM178.299 68.801C177.728 69.1316 177.214 69.3573 176.757 69.4785C176.3 69.5993 175.874 69.6599 175.48 69.6599C174.516 69.6599 173.769 69.4024 173.242 68.8872C172.715 68.3721 172.452 67.6694 172.452 66.779C172.452 66.2573 172.56 65.8152 172.776 65.4532C172.992 65.0907 173.268 64.7947 173.605 64.5659C173.941 64.3367 174.312 64.1716 174.719 64.0698C175.125 63.968 175.513 63.9171 175.881 63.9171H178.318V63.5166C178.318 63.0714 178.192 62.7374 177.938 62.5148C177.684 62.2922 177.233 62.1811 176.585 62.1811C176.281 62.1811 175.903 62.2253 175.452 62.3143C175.001 62.4037 174.547 62.6325 174.09 63.0011L173.004 61.2266C173.665 60.7181 174.328 60.3875 174.995 60.2344C175.662 60.0818 176.274 60.0056 176.833 60.0056C178.179 60.0056 179.17 60.3106 179.804 60.9212C180.439 61.5319 180.757 62.4542 180.757 63.6879V69.5838H178.528L178.357 68.8204L178.3 68.8014L178.299 68.801ZM178.337 65.7099H176.319C176.166 65.7099 176.017 65.7193 175.871 65.7387C175.725 65.7577 175.591 65.8024 175.471 65.8723C175.35 65.9422 175.252 66.0378 175.176 66.1582C175.1 66.279 175.061 66.4348 175.061 66.626C175.061 66.8804 175.153 67.0871 175.337 67.246C175.522 67.4048 175.798 67.4845 176.166 67.4845C176.573 67.4845 176.972 67.4048 177.366 67.246C177.76 67.0871 178.083 66.9375 178.337 66.7973V65.7099ZM188.489 69.583V65.8051H185.023V69.583H182.642V60.1385H185.023V63.7637H188.489V60.1385H190.927V69.583H188.489ZM198.661 63.9739L197.061 66.4352L194.947 69.5834H192.832V60.1389H195.251V65.7103H195.346L196.718 63.6114L199.022 60.1389H201.175V69.5834H198.756V63.9742H198.66L198.661 63.9739ZM205.403 65.5763V65.8816C205.403 66.1613 205.451 66.403 205.547 66.6065C205.642 66.8101 205.768 66.9752 205.927 67.1026C206.086 67.2296 206.267 67.3248 206.47 67.3885C206.673 67.4522 206.889 67.4841 207.117 67.4841C207.384 67.4841 207.714 67.4425 208.108 67.3598C208.502 67.277 208.92 67.0575 209.365 66.7017L210.698 68.3616C210.406 68.6417 210.114 68.8674 209.822 69.0391C209.53 69.2108 209.238 69.3441 208.946 69.4397C208.654 69.5348 208.359 69.5985 208.061 69.6304C207.762 69.6622 207.461 69.6782 207.156 69.6782C206.597 69.6782 206.067 69.6082 205.565 69.4684C205.064 69.3282 204.623 69.1153 204.242 68.829C203.861 68.5427 203.556 68.1833 203.328 67.751C203.099 67.3186 202.985 66.8035 202.985 66.2056V63.7633C202.985 63.1783 203.09 62.6534 203.299 62.1892C203.509 61.725 203.798 61.3338 204.166 61.0156C204.534 60.6975 204.96 60.4559 205.442 60.2904C205.925 60.1249 206.445 60.0421 207.004 60.0421C207.588 60.0421 208.128 60.1249 208.623 60.2904C209.119 60.4559 209.544 60.6944 209.9 61.0059C210.255 61.3175 210.534 61.7021 210.738 62.1601C210.941 62.6181 211.042 63.1394 211.042 63.7245V65.5751H205.405L205.403 65.5763ZM208.623 63.8018C208.623 63.2676 208.464 62.8764 208.146 62.6282C207.829 62.3803 207.454 62.256 207.022 62.256C206.578 62.256 206.197 62.3959 205.88 62.676C205.562 62.9561 205.403 63.3566 205.403 63.8779V63.9925H208.623V63.8018ZM223.422 63.9739L221.823 66.4352L219.708 69.5834H217.594V60.1389H220.013V65.7103H220.108L221.479 63.6114L223.784 60.1389H225.936V69.5834H223.517V63.9742H223.422L223.422 63.9739ZM231.365 60.0243C231.835 60.0243 232.279 60.0814 232.698 60.196C233.117 60.3102 233.482 60.4819 233.793 60.7111C234.104 60.9403 234.349 61.2235 234.527 61.5603C234.704 61.8975 234.794 62.2949 234.794 62.7529C234.794 63.1216 234.685 63.484 234.47 63.8402C234.254 64.1965 233.936 64.4828 233.517 64.6987C233.974 64.9151 234.311 65.2139 234.527 65.5953C234.743 65.9768 234.851 66.3521 234.851 66.7211C234.851 67.2172 234.755 67.6496 234.565 68.0182C234.375 68.3869 234.108 68.6957 233.765 68.9436C233.422 69.1918 233.016 69.3791 232.546 69.5065C232.076 69.6339 231.562 69.6972 231.003 69.6972C230.355 69.6972 229.695 69.6082 229.022 69.4303C228.349 69.2524 227.765 68.9723 227.27 68.5908L228.451 66.9309C228.793 67.1854 229.19 67.3796 229.641 67.5128C230.092 67.6465 230.476 67.7133 230.794 67.7133C231.403 67.7133 231.835 67.6146 232.089 67.4173C232.343 67.2203 232.47 66.9818 232.47 66.7017C232.47 66.0401 232.006 65.7095 231.079 65.7095H229.708V63.8969H231.041C231.448 63.8969 231.772 63.8111 232.013 63.6394C232.254 63.4677 232.375 63.2354 232.375 62.9432C232.375 62.6251 232.242 62.3963 231.975 62.256C231.708 62.1162 231.404 62.0463 231.061 62.0463C230.743 62.0463 230.385 62.1003 229.985 62.2083C229.585 62.3166 229.22 62.5039 228.89 62.7711L227.728 61.1302C228.21 60.7359 228.775 60.4528 229.423 60.281C230.07 60.1093 230.718 60.0235 231.366 60.0235L231.365 60.0243ZM247.231 69.5834V65.8055H243.765V69.5834H241.383V60.1389H243.765V63.7641H247.231V60.1389H249.669V69.5834H247.231ZM253.898 65.5763V65.8816C253.898 66.1613 253.946 66.403 254.041 66.6065C254.136 66.8101 254.263 66.9752 254.422 67.1026C254.58 67.2296 254.762 67.3248 254.964 67.3885C255.168 67.4522 255.384 67.4841 255.612 67.4841C255.878 67.4841 256.209 67.4425 256.602 67.3598C256.996 67.277 257.415 67.0575 257.86 66.7017L259.193 68.3616C258.901 68.6417 258.609 68.8674 258.317 69.0391C258.025 69.2108 257.733 69.3441 257.441 69.4397C257.149 69.5348 256.854 69.5985 256.555 69.6304C256.256 69.6622 255.955 69.6782 255.65 69.6782C255.092 69.6782 254.561 69.6082 254.06 69.4684C253.559 69.3282 253.117 69.1153 252.736 68.829C252.356 68.5427 252.051 68.1833 251.822 67.751C251.594 67.3186 251.48 66.8035 251.48 66.2056V63.7633C251.48 63.1783 251.584 62.6534 251.794 62.1892C252.003 61.725 252.292 61.3338 252.66 61.0156C253.029 60.6975 253.454 60.4559 253.937 60.2904C254.419 60.1249 254.94 60.0421 255.499 60.0421C256.083 60.0421 256.622 60.1249 257.118 60.2904C257.613 60.4559 258.038 60.6944 258.394 61.0059C258.75 61.3175 259.029 61.7021 259.232 62.1601C259.435 62.6181 259.537 63.1394 259.537 63.7245V65.5751H253.899L253.898 65.5763ZM257.117 63.8018C257.117 63.2676 256.958 62.8764 256.641 62.6282C256.323 62.3803 255.949 62.256 255.517 62.256C255.073 62.256 254.691 62.3959 254.374 62.676C254.057 62.9561 253.898 63.3566 253.898 63.8779V63.9925H257.117V63.8018ZM269.517 66.2822C269.517 67.3124 269.237 68.1425 268.679 68.7723C268.12 69.402 267.295 69.7166 266.202 69.7166C265.872 69.7166 265.482 69.6848 265.031 69.6215C264.58 69.5577 264.127 69.4051 263.669 69.1635V73.3613H261.25V60.1579H263.479L263.669 61.0164C264.203 60.6858 264.704 60.4438 265.174 60.2911C265.644 60.1385 266.044 60.0619 266.374 60.0619C267.39 60.0619 268.167 60.3416 268.707 60.9014C269.247 61.4612 269.517 62.3326 269.517 63.5155V66.2822ZM267.06 63.7256C267.06 63.1787 266.945 62.8065 266.716 62.6095C266.488 62.4122 266.209 62.3139 265.879 62.3139C265.726 62.3139 265.558 62.3361 265.374 62.3807C265.19 62.425 264.996 62.4856 264.793 62.5622C264.59 62.6383 264.393 62.7241 264.202 62.8197C264.012 62.9153 263.834 63.0202 263.669 63.1348V66.8936C264.101 67.0972 264.475 67.2339 264.793 67.3038C265.11 67.3738 265.415 67.4087 265.707 67.4087C266.075 67.4215 266.393 67.3198 266.659 67.1038C266.926 66.8874 267.06 66.5121 267.06 65.978V63.7264V63.7256ZM276.05 69.583V65.7861H275.592C275.364 65.7861 275.163 65.7989 274.992 65.8241C274.821 65.8498 274.666 65.91 274.526 66.0052C274.386 66.1007 274.262 66.2344 274.154 66.4061C274.046 66.5778 273.954 66.8035 273.878 67.0836L273.135 69.583H270.43L271.477 66.5114C271.63 66.0409 271.807 65.6493 272.011 65.3378C272.214 65.0258 272.55 64.7939 273.02 64.6413C272.626 64.4886 272.325 64.266 272.115 63.9735C271.906 63.6806 271.725 63.3119 271.572 62.8667L270.601 60.1191H273.191L273.992 62.3516C274.182 62.8733 274.404 63.2163 274.658 63.3818C274.912 63.5473 275.236 63.6297 275.63 63.6297H276.049V60.1191H278.487V63.6297H278.906C279.313 63.6297 279.643 63.5469 279.897 63.3818C280.151 63.2163 280.366 62.8729 280.544 62.3516L281.344 60.1191H283.915L282.963 62.8667C282.798 63.3119 282.61 63.681 282.401 63.9735C282.191 64.266 281.89 64.4886 281.496 64.6413C281.966 64.7939 282.303 65.0258 282.506 65.3378C282.709 65.6493 282.893 66.0405 283.058 66.5114L284.086 69.583H281.382L280.658 67.0836C280.581 66.8039 280.489 66.5778 280.381 66.4061C280.273 66.2344 280.153 66.1011 280.019 66.0052C279.886 65.91 279.731 65.8494 279.553 65.8241C279.375 65.7985 279.171 65.7861 278.943 65.7861H278.486V69.583H276.048H276.05ZM290.925 68.801C290.354 69.1316 289.84 69.3573 289.383 69.4785C288.925 69.5993 288.5 69.6599 288.106 69.6599C287.142 69.6599 286.395 69.4024 285.868 68.8872C285.342 68.3721 285.078 67.6694 285.078 66.779C285.078 66.2573 285.186 65.8152 285.402 65.4532C285.618 65.0907 285.894 64.7947 286.23 64.5659C286.567 64.3367 286.938 64.1716 287.345 64.0698C287.751 63.968 288.138 63.9171 288.507 63.9171H290.945V63.5166C290.945 63.0714 290.818 62.7374 290.564 62.5148C290.31 62.2922 289.859 62.1811 289.212 62.1811C288.907 62.1811 288.529 62.2253 288.079 62.3143C287.628 62.4037 287.174 62.6325 286.717 63.0011L285.631 61.2266C286.291 60.7181 286.955 60.3875 287.621 60.2344C288.288 60.0818 288.901 60.0056 289.459 60.0056C290.805 60.0056 291.796 60.3106 292.43 60.9212C293.065 61.5319 293.383 62.4542 293.383 63.6879V69.5838H291.154L290.983 68.8204L290.926 68.8014L290.925 68.801ZM290.963 65.7099H288.944C288.792 65.7099 288.643 65.7193 288.497 65.7387C288.351 65.7577 288.217 65.8024 288.097 65.8723C287.977 65.9422 287.878 66.0378 287.802 66.1582C287.726 66.279 287.688 66.4348 287.688 66.626C287.688 66.8804 287.78 67.0871 287.964 67.246C288.148 67.4048 288.424 67.4845 288.792 67.4845C289.198 67.4845 289.599 67.4048 289.992 67.246C290.386 67.0871 290.71 66.9375 290.964 66.7973V65.7099H290.963ZM303.287 66.7402C303.287 67.1345 303.223 67.5035 303.097 67.8469C302.969 68.1903 302.776 68.4926 302.516 68.7532C302.255 69.0139 301.932 69.2174 301.544 69.3639C301.157 69.51 300.703 69.5834 300.182 69.5834H295.211V60.1389H300.144C300.639 60.1389 301.074 60.2057 301.449 60.3393C301.823 60.4726 302.134 60.654 302.382 60.8828C302.63 61.112 302.814 61.382 302.934 61.6935C303.055 62.0055 303.115 62.3392 303.115 62.6954C303.115 62.899 303.083 63.1025 303.02 63.3061C302.957 63.5096 302.868 63.6973 302.753 63.869C302.639 64.0407 302.506 64.1933 302.354 64.327C302.201 64.4606 302.043 64.5593 301.877 64.6226V64.6416C302.309 64.8196 302.652 65.093 302.906 65.4621C303.16 65.8308 303.287 66.2569 303.287 66.7406L303.287 66.7402ZM300.811 66.645C300.811 66.3521 300.709 66.1171 300.506 65.9391C300.303 65.7608 300.03 65.6719 299.687 65.6719H297.63V67.6181H299.63C300.036 67.6181 300.335 67.5288 300.525 67.3508C300.715 67.1729 300.811 66.9375 300.811 66.645ZM300.697 62.9627C300.697 62.6954 300.605 62.4918 300.421 62.352C300.237 62.2121 299.992 62.1422 299.687 62.1422H297.631V63.745H299.725C300.043 63.745 300.284 63.6747 300.449 63.5349C300.615 63.395 300.697 63.2043 300.697 62.9627H300.697ZM307.344 65.5763V65.8816C307.344 66.1613 307.392 66.403 307.487 66.6065C307.582 66.8101 307.709 66.9752 307.868 67.1026C308.027 67.2296 308.208 67.3248 308.411 67.3885C308.614 67.4522 308.83 67.4841 309.058 67.4841C309.325 67.4841 309.655 67.4425 310.049 67.3598C310.442 67.277 310.861 67.0575 311.306 66.7017L312.639 68.3616C312.347 68.6417 312.055 68.8674 311.763 69.0391C311.471 69.2108 311.179 69.3441 310.887 69.4397C310.595 69.5348 310.3 69.5985 310.001 69.6304C309.703 69.6622 309.402 69.6782 309.097 69.6782C308.538 69.6782 308.008 69.6082 307.506 69.4684C307.005 69.3282 306.564 69.1153 306.183 68.829C305.802 68.5427 305.497 68.1833 305.269 67.751C305.04 67.3186 304.926 66.8035 304.926 66.2056V63.7633C304.926 63.1783 305.031 62.6534 305.24 62.1892C305.449 61.725 305.738 61.3338 306.107 61.0156C306.475 60.6975 306.901 60.4559 307.383 60.2904C307.866 60.1249 308.386 60.0421 308.945 60.0421C309.529 60.0421 310.069 60.1249 310.564 60.2904C311.059 60.4559 311.485 60.6944 311.84 61.0059C312.196 61.3175 312.475 61.7021 312.678 62.1601C312.882 62.6181 312.983 63.1394 312.983 63.7245V65.5751H307.345L307.344 65.5763ZM310.563 63.8018C310.563 63.2676 310.405 62.8764 310.087 62.6282C309.77 62.3803 309.395 62.256 308.963 62.256C308.519 62.256 308.138 62.3959 307.82 62.676C307.503 62.9561 307.344 63.3566 307.344 63.8779V63.9925H310.563V63.8018ZM326.068 66.2631C326.068 66.7973 325.966 67.2774 325.763 67.7036C325.56 68.1297 325.28 68.4891 324.925 68.7816C324.569 69.0745 324.154 69.2967 323.677 69.4494C323.201 69.602 322.69 69.6786 322.144 69.6786C321.585 69.6786 321.065 69.5989 320.582 69.44C320.1 69.2812 319.681 69.0551 319.325 68.7625C318.969 68.47 318.691 68.1076 318.487 67.6752C318.284 67.2428 318.183 66.7592 318.183 66.2251V65.8051H317.097V69.583H314.735V60.1385H317.097V63.7827H318.183V63.4203C318.183 62.8861 318.291 62.406 318.506 61.9798C318.722 61.5537 319.014 61.1943 319.382 60.9018C319.75 60.6093 320.173 60.3867 320.649 60.234C321.125 60.0814 321.624 60.0052 322.144 60.0052C322.678 60.0052 323.182 60.0814 323.658 60.234C324.135 60.3867 324.55 60.6093 324.906 60.9018C325.262 61.1947 325.544 61.5506 325.754 61.9705C325.963 62.3904 326.068 62.8671 326.068 63.4012V66.2635V66.2631ZM323.687 63.8398C323.687 63.242 323.534 62.8158 323.229 62.5614C322.925 62.3069 322.563 62.1799 322.144 62.1799C321.737 62.1799 321.372 62.3069 321.048 62.5614C320.725 62.8154 320.562 63.242 320.562 63.8398V65.9003C320.562 66.4725 320.718 66.8831 321.029 67.131C321.34 67.3792 321.712 67.5031 322.144 67.5031C322.537 67.5031 322.893 67.3792 323.21 67.131C323.528 66.8831 323.687 66.4729 323.687 65.9003V63.8398ZM340.086 60.1381V67.5031H340.982V72.063H338.81V69.5826H327.858V60.1381H330.258V67.4647H332.753V60.1381H335.134V67.4647H337.667V60.1381H340.086ZM344.582 65.5759V65.8813C344.582 66.161 344.629 66.4026 344.725 66.6061C344.82 66.8097 344.946 66.9748 345.105 67.1022C345.264 67.2292 345.445 67.3244 345.648 67.3881C345.852 67.4518 346.067 67.4837 346.296 67.4837C346.562 67.4837 346.893 67.4421 347.286 67.3594C347.68 67.2766 348.099 67.0572 348.544 66.7013L349.877 68.3613C349.585 68.6413 349.293 68.867 349.001 69.0387C348.709 69.2105 348.417 69.3437 348.124 69.4393C347.832 69.5344 347.537 69.5982 347.239 69.63C346.94 69.6619 346.639 69.6778 346.334 69.6778C345.775 69.6778 345.245 69.6079 344.744 69.468C344.242 69.3278 343.801 69.1149 343.42 68.8286C343.039 68.5423 342.734 68.1829 342.506 67.7506C342.277 67.3182 342.163 66.8031 342.163 66.2052V63.7629C342.163 63.1779 342.268 62.6531 342.477 62.1888C342.687 61.7246 342.976 61.3334 343.344 61.0153C343.712 60.6971 344.137 60.4555 344.62 60.29C345.103 60.1245 345.624 60.0417 346.182 60.0417C346.766 60.0417 347.306 60.1245 347.801 60.29C348.296 60.4555 348.722 60.694 349.077 61.0055C349.433 61.3171 349.712 61.7017 349.915 62.1597C350.119 62.6177 350.22 63.139 350.22 63.7241V65.5747H344.582L344.582 65.5759ZM347.801 63.8014C347.801 63.2672 347.642 62.876 347.324 62.6278C347.007 62.38 346.633 62.2556 346.201 62.2556C345.756 62.2556 345.375 62.3955 345.058 62.6756C344.741 62.9557 344.582 63.3562 344.582 63.8775V63.9921H347.801V63.8014ZM356.143 58.8406C355.61 58.8406 355.162 58.7419 354.801 58.545C354.439 58.3476 354.147 58.106 353.924 57.8197C353.702 57.5334 353.54 57.2218 353.439 56.8846C353.337 56.5474 353.273 56.239 353.248 55.9593H355.001C355.001 56.0867 355.026 56.2235 355.077 56.3695C355.127 56.5156 355.201 56.6527 355.296 56.7798C355.391 56.9072 355.508 57.0121 355.648 57.0944C355.788 57.1772 355.953 57.2187 356.143 57.2187C356.347 57.2187 356.521 57.1772 356.667 57.0944C356.813 57.0117 356.934 56.9068 357.029 56.7798C357.124 56.6527 357.197 56.5156 357.248 56.3695C357.299 56.2231 357.324 56.0863 357.324 55.9593H359.058C359.02 56.239 358.95 56.5474 358.848 56.8846C358.746 57.2218 358.584 57.5334 358.362 57.8197C358.14 58.1056 357.851 58.3476 357.496 58.545C357.14 58.7419 356.689 58.8406 356.143 58.8406ZM357.762 63.9731L356.162 66.4344L354.048 69.5826H351.934V60.1381H354.353V65.7095H354.448L355.819 63.6106L358.124 60.1381H360.276V69.5826H357.857V63.9735H357.762L357.762 63.9731Z" fill="white"/>
<path d="M374.372 68.2859C374.093 68.5784 373.807 68.8169 373.515 69.0014C373.223 69.186 372.925 69.3289 372.62 69.4307C372.315 69.5325 372.014 69.5993 371.715 69.6312C371.417 69.663 371.115 69.6789 370.811 69.6789C370.29 69.6789 369.795 69.609 369.325 69.4692C368.855 69.3289 368.443 69.1161 368.087 68.8297C367.731 68.5434 367.449 68.1872 367.239 67.7615C367.03 67.3353 366.925 66.8361 366.925 66.2635V63.4778C366.925 62.9056 367.039 62.4029 367.268 61.9705C367.497 61.5381 367.795 61.1788 368.163 60.8925C368.531 60.6066 368.947 60.3902 369.411 60.2437C369.874 60.0973 370.341 60.0243 370.811 60.0243C371.103 60.0243 371.401 60.0371 371.706 60.0623C372.01 60.088 372.312 60.1451 372.61 60.234C372.909 60.323 373.204 60.4535 373.496 60.6252C373.788 60.7969 374.074 61.0288 374.353 61.3214L372.963 63.0959C372.518 62.7016 372.14 62.4631 371.83 62.3803C371.518 62.2976 371.249 62.256 371.02 62.256C370.83 62.256 370.633 62.2848 370.43 62.3419C370.227 62.399 370.045 62.4946 369.887 62.6278C369.728 62.7614 369.598 62.9331 369.496 63.1429C369.395 63.3527 369.344 63.6036 369.344 63.8965V65.7853C369.344 66.0906 369.392 66.3482 369.487 66.558C369.582 66.7681 369.706 66.9394 369.859 67.0731C370.011 67.2067 370.185 67.3023 370.382 67.359C370.579 67.4161 370.779 67.4448 370.982 67.4448C371.236 67.4448 371.544 67.3877 371.906 67.2731C372.268 67.1585 372.607 66.9426 372.925 66.6244L374.373 68.2843L374.372 68.2859ZM379.934 62.1803V69.583H377.515V62.1803H374.829V60.1385H382.62V62.1803H379.934ZM388.772 68.801C388.201 69.1316 387.687 69.3573 387.229 69.4785C386.772 69.5993 386.347 69.6599 385.953 69.6599C384.988 69.6599 384.242 69.4024 383.715 68.8872C383.189 68.3721 382.925 67.6694 382.925 66.779C382.925 66.2573 383.033 65.8152 383.249 65.4532C383.464 65.0907 383.741 64.7947 384.077 64.5659C384.414 64.3367 384.785 64.1716 385.191 64.0698C385.598 63.968 385.985 63.9171 386.353 63.9171H388.791V63.5166C388.791 63.0714 388.665 62.7373 388.411 62.5148C388.157 62.2922 387.706 62.1811 387.058 62.1811C386.754 62.1811 386.376 62.2253 385.925 62.3143C385.475 62.4036 385.02 62.6325 384.563 63.0011L383.477 61.2266C384.138 60.7181 384.801 60.3875 385.468 60.2344C386.135 60.0818 386.747 60.0056 387.306 60.0056C388.652 60.0056 389.643 60.3106 390.278 60.9212C390.912 61.5319 391.23 62.4541 391.23 63.6879V69.5838H389.001L388.83 68.8204L388.773 68.8014L388.772 68.801ZM388.81 65.7099H386.791C386.639 65.7099 386.489 65.7193 386.344 65.7387C386.197 65.7577 386.064 65.8024 385.944 65.8723C385.823 65.9422 385.725 66.0378 385.648 66.1582C385.572 66.279 385.534 66.4348 385.534 66.6259C385.534 66.8804 385.626 67.0871 385.81 67.2459C385.995 67.4048 386.271 67.4845 386.639 67.4845C387.045 67.4845 387.445 67.4048 387.839 67.2459C388.233 67.0871 388.556 66.9375 388.81 66.7973V65.7099H388.81ZM396.41 64.2598C396.41 65.9768 396.121 67.2871 395.543 68.1903C394.965 69.0931 394.01 69.6405 392.677 69.8312L392.181 67.9231C392.549 67.8088 392.854 67.6721 393.095 67.5128C393.337 67.3539 393.527 67.1407 393.667 66.8738C393.807 66.6065 393.905 66.2666 393.962 65.8529C394.019 65.4396 394.048 64.9275 394.048 64.3169V60.1381H401.152V69.5826H398.734V62.1799H396.41V64.2594V64.2598ZM408.962 63.9739L407.362 66.4352L405.248 69.5834H403.134V60.1389H405.553V65.7103H405.648L407.019 63.6114L409.324 60.1389H411.476V69.5834H409.057V63.9742H408.962L408.962 63.9739Z" fill="white"/>
<path d="M101.69 49.8778C100.176 49.8778 98.776 49.4843 97.4908 48.6976C96.2052 47.9106 95.1841 46.852 94.4271 45.5215C93.6702 44.191 93.2917 42.7389 93.2917 41.1652V28.5468C93.2917 26.9731 93.6702 25.521 94.4271 24.1905C95.1841 22.86 96.2052 21.8014 97.4908 21.0144C98.7764 20.2273 100.176 19.8338 101.69 19.8338H124.783C125.012 19.8338 125.204 19.9127 125.361 20.07C125.519 20.2273 125.597 20.4204 125.597 20.6492V28.4175C125.597 28.6467 125.519 28.8397 125.361 28.9971C125.204 29.1544 125.012 29.2329 124.783 29.2329H104.26C104.031 29.2329 103.839 29.3117 103.682 29.4691C103.525 29.6264 103.446 29.8195 103.446 30.0483V39.4477C103.446 39.6765 103.525 39.8696 103.682 40.0273C103.839 40.1847 104.031 40.2631 104.26 40.2631H124.783C125.012 40.2631 125.204 40.3416 125.361 40.4989C125.519 40.6563 125.597 40.8497 125.597 41.0785V49.0612C125.597 49.29 125.519 49.4831 125.361 49.6408C125.204 49.7982 125.012 49.8766 124.783 49.8766H101.69V49.8778ZM140.079 49.8778C139.879 49.8778 139.722 49.8133 139.608 49.6847C139.493 49.5561 139.436 49.4058 139.436 49.2341V29.7915C139.436 29.6198 139.379 29.4768 139.265 29.3622C139.151 29.248 139.008 29.1905 138.836 29.1905H128.339C128.197 29.1905 128.054 29.119 127.911 28.9761C127.797 28.8044 127.739 28.6471 127.739 28.5041V20.4783C127.739 20.3353 127.797 20.1776 127.911 20.0063C128.025 19.8917 128.168 19.8346 128.339 19.8346H160.645C160.816 19.8346 160.959 19.8917 161.073 20.0063C161.188 20.178 161.245 20.3353 161.245 20.4783V28.5041C161.245 28.6471 161.188 28.8044 161.073 28.9761C160.93 29.119 160.788 29.1905 160.645 29.1905H150.148C150.004 29.1905 149.869 29.2476 149.74 29.3622C149.612 29.4768 149.548 29.6198 149.548 29.7915V49.2341C149.548 49.4058 149.491 49.5558 149.376 49.6847C149.262 49.8133 149.105 49.8778 148.905 49.8778H140.079Z" fill="white"/>
<path d="M290.638 19.8342C290.839 19.8342 290.996 19.8913 291.11 20.0059C291.224 20.1205 291.281 20.2634 291.281 20.4351V49.2337C291.281 49.4054 291.217 49.5553 291.088 49.6843C290.96 49.8129 290.795 49.8774 290.596 49.8774H281.77C281.598 49.8774 281.449 49.8129 281.32 49.6843C281.192 49.5557 281.127 49.4054 281.127 49.2337V30.0918C281.127 29.9201 281.07 29.7771 280.956 29.6625C280.841 29.5479 280.699 29.4908 280.527 29.4908H268.616C268.473 29.4908 268.337 29.5479 268.209 29.6625C268.081 29.7767 268.016 29.9201 268.016 30.0918V49.2337C268.016 49.4054 267.959 49.5553 267.845 49.6843C267.731 49.8129 267.588 49.8774 267.416 49.8774H258.505C258.333 49.8774 258.183 49.8129 258.055 49.6843C257.926 49.5557 257.862 49.4054 257.862 49.2337V20.4351C257.862 20.2634 257.919 20.1205 258.033 20.0059C258.148 19.8913 258.291 19.8342 258.462 19.8342H290.639H290.638Z" fill="white"/>
<path d="M249.758 39.8028C249.758 41.9774 249.294 43.8301 248.365 45.3606C247.437 46.8912 246.195 48.05 244.638 48.8371C243.081 49.6237 241.389 50.0173 239.561 50.0173H219.723C219.523 50.0173 219.352 49.9458 219.209 49.8028C219.067 49.6599 218.995 49.4882 218.995 49.2877V20.7467C218.995 20.5175 219.067 20.3388 219.209 20.2102C219.352 20.0816 219.523 20.0172 219.723 20.0172H228.421C228.621 20.0172 228.793 20.0886 228.935 20.2316C229.078 20.3745 229.149 20.5462 229.149 20.7467V28.7294C229.149 28.9582 229.206 29.1299 229.321 29.2445C229.464 29.3879 229.635 29.4593 229.835 29.4593L239.561 29.5021C241.331 29.5021 243.003 29.9457 244.574 30.8326C246.145 31.7195 247.401 32.9498 248.344 34.5235C249.287 36.0972 249.758 37.8569 249.758 39.8024L249.758 39.8028ZM239.304 39.5452C239.304 39.2018 239.183 38.9229 238.94 38.7085C238.697 38.494 238.361 38.3868 237.933 38.3868L230.049 38.3437C229.878 38.3437 229.75 38.3868 229.664 38.4723C229.55 38.5869 229.493 38.6867 229.493 38.7726V40.2317C229.493 40.3175 229.55 40.4177 229.664 40.5323C229.75 40.6182 229.878 40.6609 230.049 40.6609H237.933C238.39 40.6609 238.733 40.5537 238.962 40.3389C239.19 40.1244 239.304 39.8595 239.304 39.5448L239.304 39.5452Z" fill="white"/>
<path d="M294.508 49.8778C294.308 49.8778 294.137 49.8063 293.994 49.6634C293.851 49.5204 293.78 49.3487 293.78 49.1483V20.5641C293.78 20.3637 293.851 20.1994 293.994 20.0708C294.136 19.9422 294.308 19.8777 294.508 19.8777L318.073 19.8346C319.901 19.8346 321.593 20.2281 323.15 21.0152C324.707 21.8018 325.949 22.968 326.877 24.513C327.806 26.0579 328.27 27.9179 328.27 30.0922C328.27 32.0377 327.799 33.7974 326.856 35.3711C325.913 36.9448 324.657 38.1751 323.086 39.062C321.515 39.9489 319.844 40.3925 318.073 40.3925L304.663 40.4352C304.462 40.4352 304.291 40.5071 304.148 40.6501C304.006 40.793 303.934 40.9647 303.934 41.1652V49.1479C303.934 49.3483 303.863 49.52 303.72 49.663C303.577 49.806 303.406 49.8774 303.206 49.8774H294.508L294.508 49.8778ZM316.445 31.4654C316.873 31.4654 317.209 31.3582 317.452 31.1434C317.694 30.929 317.816 30.664 317.816 30.3494C317.816 30.0347 317.702 29.7698 317.473 29.5553C317.244 29.3409 316.902 29.2333 316.444 29.2333H304.876C304.705 29.2333 304.576 29.2764 304.491 29.3619C304.376 29.4477 304.319 29.5479 304.319 29.6625V31.0789C304.319 31.1935 304.376 31.2933 304.491 31.3796C304.576 31.4654 304.705 31.5082 304.876 31.5082L316.444 31.4654H316.445Z" fill="white"/>
<path d="M160.125 49.8992C159.783 49.8992 159.518 49.7706 159.333 49.513C159.147 49.2555 159.083 48.9552 159.14 48.6118L166.638 20.5859C166.695 20.3571 166.817 20.178 167.002 20.0494C167.188 19.9208 167.395 19.8563 167.624 19.8563H183.99C184.219 19.8563 184.433 19.9282 184.633 20.0712C184.833 20.2141 184.947 20.3858 184.976 20.5863L192.474 48.6122C192.56 48.9556 192.502 49.2559 192.303 49.5134C192.102 49.771 191.831 49.8996 191.489 49.8996H182.877C182.648 49.8996 182.441 49.8351 182.255 49.7065C182.07 49.5779 181.948 49.3988 181.891 49.17L181.291 46.8524C181.263 46.7378 181.191 46.6376 181.077 46.5517C180.963 46.4659 180.834 46.4231 180.692 46.4231H170.923C170.78 46.4231 170.652 46.4663 170.538 46.5517C170.423 46.6376 170.352 46.7378 170.323 46.8524C170.266 47.11 170.209 47.3244 170.152 47.4961C170.095 47.6678 170.052 47.8251 170.023 47.9681C169.823 48.712 169.709 49.2127 169.68 49.4703C169.595 49.7562 169.395 49.8996 169.081 49.8996H160.126L160.125 49.8992ZM177.906 37.1095C178.106 37.1095 178.263 37.0311 178.377 36.8733C178.492 36.716 178.52 36.5229 178.463 36.2941L176.621 29.4698C176.592 29.2981 176.478 29.2123 176.278 29.2123H175.335C175.164 29.2123 175.05 29.2981 174.993 29.4698L173.15 36.2941V36.4658C173.15 36.6375 173.2 36.7879 173.3 36.9165C173.4 37.045 173.536 37.1095 173.707 37.1095H177.906ZM228.378 19.856C228.578 19.856 228.742 19.9131 228.871 20.0277C228.999 20.1423 229.063 20.2852 229.063 20.4569V49.2986C229.063 49.4703 228.999 49.6133 228.871 49.7279C228.742 49.8425 228.578 49.8996 228.378 49.8996H219.895C219.695 49.8996 219.523 49.8351 219.381 49.7065C219.238 49.5779 219.167 49.4419 219.167 49.2986V29.3844C219.167 29.2414 219.11 29.1055 218.995 28.9765C218.881 28.8479 218.738 28.7834 218.567 28.7834H211.84C211.554 28.7834 211.354 28.9551 211.24 29.2985L208.713 43.3328C208.227 45.25 207.234 46.8237 205.735 48.0539C204.235 49.2842 202.514 49.8996 200.572 49.8996H195.259C195.116 49.8996 194.98 49.8425 194.852 49.7279C194.723 49.6137 194.659 49.4703 194.659 49.2986V40.6718C194.659 40.5289 194.723 40.3929 194.852 40.2639C194.98 40.1353 195.116 40.0708 195.259 40.0708H199.286L202.714 20.4569C202.743 20.2852 202.821 20.1423 202.95 20.0277C203.078 19.9131 203.228 19.856 203.4 19.856H228.378H228.378Z" fill="white"/>
<path d="M338.17 49.8778C336.656 49.8778 335.257 49.4843 333.972 48.6976C332.686 47.9106 331.665 46.852 330.908 45.5215C330.151 44.1909 329.772 42.7388 329.772 41.1651V28.5899C329.772 26.9879 330.151 25.521 330.908 24.1909C331.665 22.8604 332.686 21.8018 333.972 21.0147C335.257 20.2277 336.656 19.8342 338.17 19.8342H356.465C358.008 19.8342 359.422 20.2277 360.707 21.0147C361.993 21.8014 363.006 22.8604 363.749 24.1909C364.492 25.5214 364.863 26.9879 364.863 28.5899V41.1651C364.863 42.7388 364.492 44.1909 363.749 45.5215C363.006 46.852 361.993 47.9106 360.707 48.6976C359.422 49.4843 358.008 49.8778 356.465 49.8778H338.17ZM353.295 39.7919C353.695 39.7919 354.037 39.6416 354.323 39.3413C354.609 39.0406 354.752 38.6618 354.752 38.2038V31.3799C354.752 30.9219 354.609 30.5358 354.323 30.2211C354.038 29.9065 353.695 29.7491 353.295 29.7491H341.427C341.027 29.7491 340.677 29.9065 340.377 30.2211C340.077 30.5358 339.927 30.9219 339.927 31.3799V38.2038C339.927 38.6618 340.077 39.0406 340.377 39.3413C340.677 39.6416 341.027 39.7919 341.427 39.7919H353.295ZM393.312 20.2638C393.34 19.9779 393.526 19.8346 393.869 19.8346H410.879C411.05 19.8346 411.193 19.899 411.307 20.0276C411.421 20.1562 411.478 20.3065 411.478 20.4783V49.191C411.478 49.3914 411.421 49.5557 411.307 49.6843C411.193 49.8129 411.036 49.8774 410.836 49.8774H401.795C401.595 49.8774 401.438 49.8129 401.324 49.6843C401.21 49.5557 401.153 49.391 401.153 49.191V31.122C401.153 31.0074 401.088 30.9429 400.96 30.9289C400.832 30.9145 400.753 30.9647 400.725 31.0793L399.739 34.7705C397.654 42.4102 396.355 47.2886 395.84 49.4058C395.812 49.5204 395.748 49.6202 395.648 49.7061C395.547 49.7919 395.426 49.8347 395.283 49.8347H383.158C383.044 49.8347 382.93 49.7919 382.815 49.7061C382.701 49.6202 382.63 49.5204 382.601 49.4058C382.087 47.4316 380.645 42.0808 378.274 33.3541L377.717 31.2513C377.688 31.1367 377.617 31.0796 377.503 31.0796C377.389 31.0796 377.332 31.1511 377.332 31.2941V49.1914C377.332 49.3918 377.267 49.5561 377.139 49.6847C377.01 49.8133 376.875 49.8778 376.732 49.8778H367.649C367.477 49.8778 367.327 49.8133 367.199 49.6847C367.071 49.5561 367.006 49.3914 367.006 49.1914V20.4786C367.006 20.3069 367.063 20.1566 367.178 20.028C367.292 19.8994 367.42 19.8349 367.563 19.8349H384.573C384.915 19.8349 385.101 19.9783 385.13 20.2642L389.028 35.5863C389.085 35.7009 389.15 35.758 389.221 35.758C389.293 35.758 389.343 35.7009 389.371 35.5863L393.313 20.2642L393.312 20.2638Z" fill="white"/>
</g>
<defs>
<clipPath id="clip0_10_1180">
<rect width="411.478" height="89" fill="white"/>
</clipPath>
</defs>
</svg>
