<svg width="19" height="15" viewBox="0 0 19 15" fill="none" xmlns="http://www.w3.org/2000/svg">
<path d="M1.5 1.5L7.60764 6.11227L7.60967 6.11396C8.28785 6.61128 8.62714 6.8601 8.99876 6.95621C9.32723 7.04117 9.67251 7.04117 10.001 6.95621C10.3729 6.86001 10.7132 6.61047 11.3926 6.11227C11.3926 6.11227 15.3101 3.10594 17.5 1.5M0.5 11.3002V3.7002C0.5 2.58009 0.5 2.01962 0.717987 1.5918C0.909734 1.21547 1.21547 0.909734 1.5918 0.717987C2.01962 0.5 2.58009 0.5 3.7002 0.5H15.3002C16.4203 0.5 16.9796 0.5 17.4074 0.717987C17.7837 0.909734 18.0905 1.21547 18.2822 1.5918C18.5 2.0192 18.5 2.57899 18.5 3.69691V11.3036C18.5 12.4215 18.5 12.9805 18.2822 13.4079C18.0905 13.7842 17.7837 14.0905 17.4074 14.2822C16.98 14.5 16.421 14.5 15.3031 14.5H3.69691C2.57899 14.5 2.0192 14.5 1.5918 14.2822C1.21547 14.0905 0.909734 13.7842 0.717987 13.4079C0.5 12.9801 0.5 12.4203 0.5 11.3002Z" stroke="white" stroke-linecap="round" stroke-linejoin="round"/>
</svg>
