<svg width="19" height="19" viewBox="0 0 19 19" fill="none" xmlns="http://www.w3.org/2000/svg">
<path d="M7.00246 1.75722C6.69873 0.997902 5.96332 0.5 5.14551 0.5H2.39474C1.3483 0.5 0.5 1.3481 0.5 2.39453C0.5 11.2892 7.71078 18.5 16.6055 18.5C17.6519 18.5 18.5 17.6516 18.5 16.6052L18.5005 13.854C18.5005 13.0361 18.0027 12.3009 17.2434 11.9971L14.6069 10.9429C13.9249 10.6701 13.1483 10.7929 12.5839 11.2632L11.9035 11.8307C11.1089 12.4929 9.93963 12.4402 9.2082 11.7088L7.29222 9.79106C6.56079 9.05962 6.50673 7.89134 7.16895 7.09668L7.73633 6.4163C8.20661 5.85195 8.33049 5.07516 8.05766 4.39309L7.00246 1.75722Z" stroke="white" stroke-linecap="round" stroke-linejoin="round"/>
</svg>
