<svg width="67" height="66" viewBox="0 0 67 66" fill="none" xmlns="http://www.w3.org/2000/svg">
<path fill-rule="evenodd" clip-rule="evenodd" d="M51.4405 52.9088L58.3559 52.9073L58.3589 59.8515L51.3601 59.9221C51.3117 59.6275 51.1449 53.419 51.4404 52.9087L51.4405 52.9088ZM37.0218 52.9091L43.8801 52.9229C44.18 53.4329 44.0182 59.5407 43.9655 59.908C43.4114 60.1022 37.5643 60.1002 36.9419 59.9225L37.0218 52.9091ZM22.6315 52.9279L29.49 52.9041L29.5827 53.0894C29.7329 53.6508 29.6115 59.6657 29.5662 59.9269C28.8342 60.1223 23.1637 60.1363 22.5437 59.9025C22.5004 59.5824 22.3488 53.4045 22.6315 52.9279ZM15.0632 52.9088C15.3775 53.4514 15.211 59.512 15.1435 59.9221C14.8742 59.9732 8.68491 60.1486 8.14938 59.8516L8.15234 52.9073L15.0632 52.9089V52.9088ZM52.5633 46.6735C52.3917 46.9846 52.5953 46.8444 52.22 46.9418L45.7621 46.8928C45.6084 46.0512 45.6791 32.887 45.7056 30.499C45.7068 30.3924 45.7194 30.0562 45.7097 29.9728C45.6367 29.3431 45.779 29.7529 45.5567 29.5821C44.9032 29.9273 32.8606 35.527 32.7631 35.9785L32.6978 46.8825L30.5378 46.8755L30.4812 29.5095L23.9585 32.6524C22.8315 33.186 21.7419 33.7478 20.6382 34.2721C20.1804 34.4895 17.6083 35.6164 17.5276 35.9785L17.4778 46.8803L15.3029 46.8818L15.2681 29.5518L5.43237 34.2614C5.00774 34.4881 2.40073 35.5041 2.29197 35.9784L2.25793 46.8538C0.972634 46.9825 0.1469 46.7111 0.0646062 48.1185C-0.0542718 50.151 -0.0111929 64.9487 0.211272 65.3681C0.66023 66.2145 2.10345 65.9577 3.11679 65.9576H62.0878C66.2972 65.9576 66.4427 66.4536 66.4398 63.3667V49.542C66.4423 45.913 66.0293 47.1404 62.2582 46.8619L60.0826 19.7633L54.7904 19.764L52.5632 46.6735H52.5633Z" fill="white"/>
<path fill-rule="evenodd" clip-rule="evenodd" d="M15.0293 3.91124C15.0471 5.44378 15.1291 7.02733 15.1991 8.59083C15.2862 10.5361 15.195 9.99576 13.2917 11.502C11.8926 12.6092 12.3589 12.5562 9.92235 11.7966C8.87185 11.469 7.25985 10.866 6.21708 10.6771L3.3423 15.7398L6.03991 18.3036C7.43726 19.5222 7.90579 19.2513 7.54052 21.6395C7.15708 24.1469 7.65997 23.7881 5.43352 24.8706C4.35967 25.3927 2.94949 26.3244 1.90442 26.6745L3.48025 32.6923L13.9094 27.6651C13.6387 25.7216 12.831 24.6555 13.5901 21.579C14.0739 19.6191 14.9961 18.2454 15.9865 17.0769C20.1685 12.1435 30.2926 12.6282 33.0183 20.8247C33.6345 22.6776 33.6934 24.7897 33.1425 26.7427C32.5526 28.8346 32.7604 30.7662 32.7604 33.2407C33.3278 33.1308 40.2519 29.7322 40.5027 29.4506C39.8364 28.8245 38.9167 28.5349 39.1362 27.1445C39.7395 23.3217 38.8772 24.5418 42.4001 22.5992C43.1597 22.1804 44.3252 21.6567 44.9054 21.2437L43.4212 15.579C41.9055 15.6163 40.3672 15.6822 38.8375 15.7509C36.6474 15.8493 36.8718 15.0845 35.9018 13.8832C34.6555 12.3396 34.8677 12.6679 35.5368 10.4961C35.8993 9.31946 36.4559 7.88407 36.6761 6.70664C36.045 6.4959 34.8391 5.70074 34.1747 5.31707C33.4985 4.92663 32.2266 4.07914 31.505 3.86427L27.8078 7.94797C27.1889 8.52116 26.4006 8.15738 25.5953 8.04223C23.0431 7.67697 23.6049 7.99188 22.536 5.91231C22.1005 5.06498 21.14 3.04938 20.6522 2.4425L15.0291 3.91124H15.0293Z" fill="white"/>
<path fill-rule="evenodd" clip-rule="evenodd" d="M61.142 10.5467V8.06867C61.142 3.35028 57.7216 0 52.9955 0H41.1753C39.2265 0 39.3352 1.98894 40.6752 2.21536C42.4097 2.50848 51.1908 1.87469 54.1918 2.30665C56.554 2.64674 58.3895 4.51689 58.8125 6.79119C59.0642 8.14444 58.7099 10.0508 58.9517 11.1944C59.1954 12.3464 61.142 12.6689 61.142 10.5467Z" fill="white"/>
<path fill-rule="evenodd" clip-rule="evenodd" d="M45.1458 4.67088C44.0363 5.04168 43.4483 6.85099 46.2375 6.83638L53.6347 6.88723C55.3686 7.3499 53.0749 12.8455 55.7735 12.0391C56.9862 11.6766 56.6162 9.05438 56.5614 7.80184C56.4933 6.24717 55.6314 5.25522 54.5268 4.83127C53.6999 4.51405 45.9989 4.38577 45.1457 4.6708L45.1458 4.67088Z" fill="white"/>
<path fill-rule="evenodd" clip-rule="evenodd" d="M52.8585 17.5292L61.9094 17.5289L61.9646 15.285L52.9062 15.2849L52.8585 17.5292Z" fill="white"/>
</svg>
