<svg width="59" height="59" viewBox="0 0 59 59" fill="none" xmlns="http://www.w3.org/2000/svg">
<path fill-rule="evenodd" clip-rule="evenodd" d="M14.5894 56.7054C14.7116 57.4191 15.2621 57.956 15.787 58.2058C16.4576 58.5251 17.5372 58.4011 18.3173 58.4009H51.0501C57.0775 58.4009 58.195 59.2914 58.1941 54.6188V21.753C58.1941 15.7032 59.0811 14.5791 54.4273 14.58H21.6945C15.6372 14.58 14.5495 13.6921 14.5503 18.3621C14.5511 22.1313 14.4177 55.7029 14.5894 56.7054Z" fill="white"/>
<path fill-rule="evenodd" clip-rule="evenodd" d="M8.34076 21.7693C9.0865 22.3997 10.2005 23.6762 11.7206 22.4357C12.9019 21.4716 12.4771 19.9748 11.6158 19.0913C6.54632 13.8911 6.61974 13.3189 3.26764 16.6846C2.01564 17.9417 -1.61869 20.6761 0.827676 22.4931C2.35911 23.6307 3.41768 22.3782 4.15882 21.7694L4.134 51.2116C3.39228 50.5812 2.26837 49.3046 0.753043 50.5443C-0.426858 51.5094 -0.00553658 53.0053 0.862536 53.8861C5.898 58.995 5.79516 59.7305 9.2113 56.3005C10.4617 55.0451 14.0957 52.3015 11.6471 50.4878C10.1083 49.3481 9.05995 50.6037 8.31609 51.2116L8.34092 21.7694L8.34076 21.7693Z" fill="white"/>
<path fill-rule="evenodd" clip-rule="evenodd" d="M21.7134 4.11956C22.3539 3.37739 23.5977 2.23298 22.3755 0.726357C21.4209 -0.450578 19.9259 -0.0375201 19.0462 0.835482C13.943 5.9004 13.2364 5.79556 16.6454 9.21584C17.8987 10.4734 20.6208 14.1206 22.4314 11.6644C23.5562 10.1387 22.3294 9.06041 21.7134 8.32006L51.0355 8.34383C50.4159 9.09334 49.1272 10.2029 50.37 11.7388C51.331 12.9266 52.8207 12.4966 53.6997 11.6317C58.8712 6.54335 59.4579 6.62366 56.1004 3.24879C55.2521 2.39592 54.4983 1.60109 53.6344 0.769115C52.7051 -0.126009 51.1805 -0.377195 50.3128 0.801061C49.172 2.35028 50.4383 3.39976 51.0354 4.14597L21.7133 4.11939L21.7134 4.11956Z" fill="white"/>
</svg>
