<svg width="11" height="19" viewBox="0 0 11 19" fill="none" xmlns="http://www.w3.org/2000/svg">
<path d="M0.5 3.7002V15.3002C0.5 16.4203 0.5 16.9801 0.717987 17.4079C0.909734 17.7842 1.21547 18.0905 1.5918 18.2822C2.0192 18.5 2.57899 18.5 3.69691 18.5H7.30309C8.421 18.5 8.97999 18.5 9.40739 18.2822C9.78372 18.0905 10.0905 17.7842 10.2822 17.4079C10.5 16.9805 10.5 16.4215 10.5 15.3036V3.69691C10.5 2.57899 10.5 2.0192 10.2822 1.5918C10.0905 1.21547 9.78372 0.909734 9.40739 0.717987C8.97957 0.5 8.4203 0.5 7.3002 0.5H3.7002C2.58009 0.5 2.01962 0.5 1.5918 0.717987C1.21547 0.909734 0.909734 1.21547 0.717987 1.5918C0.5 2.01962 0.5 2.58009 0.5 3.7002Z" stroke="white" stroke-linecap="round" stroke-linejoin="round"/>
</svg>
