<svg width="21" height="20" viewBox="0 0 21 20" fill="none" xmlns="http://www.w3.org/2000/svg">
<path d="M0.661743 8.14292C0.348493 7.85324 0.518651 7.32955 0.942348 7.27931L6.94592 6.56722C7.1186 6.54674 7.2686 6.43831 7.34143 6.2804L9.87366 0.790614C10.0524 0.403178 10.6032 0.403104 10.7819 0.79054L13.3141 6.28029C13.3869 6.43819 13.5359 6.54692 13.7086 6.5674L19.7125 7.27931C20.1362 7.32955 20.3059 7.85339 19.9926 8.14308L15.5545 12.2481C15.4269 12.3661 15.37 12.5419 15.4039 12.7124L16.5818 18.6421C16.6649 19.0606 16.2196 19.3848 15.8473 19.1764L10.5719 16.2228C10.4202 16.1378 10.2358 16.1382 10.0841 16.2232L4.80822 19.1757C4.43591 19.3841 3.98972 19.0606 4.07288 18.6421L5.25093 12.7128C5.28481 12.5422 5.22812 12.3661 5.10045 12.248L0.661743 8.14292Z" stroke="white" stroke-linecap="round" stroke-linejoin="round"/>
</svg>
