<svg width="48" height="48" viewBox="0 0 48 48" fill="none" xmlns="http://www.w3.org/2000/svg">
<g clip-path="url(#clip0_79_939)">
<path d="M24 48C37.2548 48 48 37.2548 48 24C48 10.7452 37.2548 0 24 0C10.7452 0 0 10.7452 0 24C0 37.2548 10.7452 48 24 48Z" fill="white" fill-opacity="0.1"/>
<path d="M24 0.5C36.9787 0.5 47.5 11.0213 47.5 24C47.5 36.9787 36.9787 47.5 24 47.5C11.0213 47.5 0.5 36.9787 0.5 24C0.5 11.0213 11.0213 0.5 24 0.5Z" stroke="white" stroke-opacity="0.8"/>
<path d="M9.98851 23.7918C9.98851 23.7918 21.9885 18.867 26.1503 17.1328C27.7457 16.4392 33.1561 14.2195 33.1561 14.2195C33.1561 14.2195 35.6532 13.2485 35.4451 15.6068C35.3757 16.578 34.8208 19.9767 34.266 23.6531C33.4335 28.8554 32.5318 34.5432 32.5318 34.5432C32.5318 34.5432 32.3931 36.1386 31.2139 36.4161C30.0348 36.6935 28.0925 35.445 27.7457 35.1675C27.4682 34.9595 22.5434 31.838 20.7399 30.312C20.2544 29.8958 19.6995 29.0635 20.8092 28.0924C23.3064 25.8034 26.289 22.9595 28.0925 21.156C28.9249 20.3236 29.7572 18.3814 26.289 20.7397C21.3642 24.1386 16.5087 27.3294 16.5087 27.3294C16.5087 27.3294 15.3989 28.023 13.318 27.3987C11.237 26.7745 8.80925 25.9421 8.80925 25.9421C8.80925 25.9421 7.14461 24.9016 9.98851 23.7918Z" fill="white"/>
</g>
<defs>
<clipPath id="clip0_79_939">
<rect width="48" height="48" fill="white"/>
</clipPath>
</defs>
</svg>
