<svg width="40" height="41" viewBox="0 0 40 41" fill="none" xmlns="http://www.w3.org/2000/svg">
<path d="M2.4695 0.000854492C3.05568 0.0167691 3.57559 0.244384 3.9734 0.689331L8.43239 5.61023L8.56129 5.75281V7.85046H35.2322V5.44617H39.8699V35.0106H35.7312C36.3191 35.5661 36.6882 36.3509 36.6882 37.2235C36.6882 38.9062 35.324 40.2703 33.6414 40.2704C31.9586 40.2704 30.5945 38.9063 30.5945 37.2235C30.5945 36.3508 30.9635 35.5661 31.5515 35.0106H12.1004C12.6882 35.5661 13.0564 36.351 13.0564 37.2235C13.0564 38.9063 11.6923 40.2704 10.0095 40.2704C8.32701 40.2701 6.96266 38.9061 6.96266 37.2235C6.9627 36.351 7.33187 35.5661 7.91969 35.0106H3.9109V7.54968L0.54274 3.82019V3.81921C-0.209636 2.99129 -0.174726 1.72155 0.615982 0.930542L0.930435 0.616089C1.34681 0.199739 1.87399 -0.0152402 2.4695 0.000854492ZM10.0095 35.1766C8.87934 35.1769 7.96273 36.0933 7.96266 37.2235C7.96266 38.3538 8.8793 39.2701 10.0095 39.2704C11.14 39.2704 12.0564 38.354 12.0564 37.2235C12.0563 36.0931 11.14 35.1766 10.0095 35.1766ZM33.6414 35.1766C32.511 35.1766 31.5946 36.0931 31.5945 37.2235C31.5945 38.354 32.5109 39.2704 33.6414 39.2704C34.7717 39.2703 35.6882 38.3539 35.6882 37.2235C35.6882 36.0932 34.7717 35.1768 33.6414 35.1766ZM2.44215 0.999878C2.12514 0.991375 1.86236 1.09825 1.63747 1.32312L1.32301 1.63757C0.932472 2.02839 0.89479 2.63656 1.21461 3.06531L1.28395 3.14832L1.28493 3.15027L4.782 7.02332L4.9109 7.16589V34.0106H38.8699V6.44617H36.2322V31.3661H7.56129V6.13757L3.23219 1.36023L3.22926 1.3573C3.02322 1.12611 2.76704 1.00871 2.44215 0.999878ZM8.56129 30.3661H35.2322V23.6815H8.56129V30.3661ZM8.56129 22.6815H35.2322V20.037H8.56129V22.6815ZM8.56129 19.037H35.2322V12.495H8.56129V19.037ZM8.56129 11.495H35.2322V8.85046H8.56129V11.495Z" fill="white"/>
</svg>
