<svg width="20" height="20" viewBox="0 0 20 20" fill="none" xmlns="http://www.w3.org/2000/svg">
<path d="M15 19C15 16.2386 12.7614 14 10 14C7.23858 14 5 16.2386 5 19M15 19H15.8031C16.921 19 17.48 19 17.9074 18.7822C18.2837 18.5905 18.5905 18.2837 18.7822 17.9074C19 17.48 19 16.921 19 15.8031V4.19691C19 3.07899 19 2.5192 18.7822 2.0918C18.5905 1.71547 18.2837 1.40973 17.9074 1.21799C17.4796 1 16.9203 1 15.8002 1H4.2002C3.08009 1 2.51962 1 2.0918 1.21799C1.71547 1.40973 1.40973 1.71547 1.21799 2.0918C1 2.51962 1 3.08009 1 4.2002V15.8002C1 16.9203 1 17.4796 1.21799 17.9074C1.40973 18.2837 1.71547 18.5905 2.0918 18.7822C2.5192 19 3.07899 19 4.19691 19H5M15 19H5M10 11C8.34315 11 7 9.65685 7 8C7 6.34315 8.34315 5 10 5C11.6569 5 13 6.34315 13 8C13 9.65685 11.6569 11 10 11Z" stroke="white" stroke-width="2" stroke-linecap="round" stroke-linejoin="round"/>
</svg>
