<svg width="38" height="37" viewBox="0 0 38 37" fill="none" xmlns="http://www.w3.org/2000/svg">
<path d="M23.2871 14.4854C27.1415 14.4854 30.644 14.7038 33.1943 15.0605C34.4647 15.2383 35.5263 15.4538 36.2832 15.7041C36.6573 15.8278 36.9956 15.9725 37.2529 16.1484C37.4842 16.3065 37.8145 16.6049 37.8145 17.0693C37.8144 17.5337 37.4841 17.8322 37.2529 17.9902C36.9956 18.1661 36.6573 18.3109 36.2832 18.4346C36.121 18.4882 35.9442 18.5384 35.7549 18.5889C35.2814 23.1976 34.7387 26.646 34.0068 29.2188C33.2739 31.7953 32.3342 33.5611 31.0205 34.7324C29.6979 35.9116 28.0744 36.4184 26.1328 36.6416C24.2106 36.8625 21.8809 36.8125 19.1211 36.8125C16.372 36.8125 14.0411 36.9002 12.1328 36.7285C10.2025 36.5548 8.57841 36.1097 7.25195 34.9658C5.93437 33.8294 4.99527 32.0761 4.25977 29.4727C3.53062 26.8916 2.98233 23.4018 2.49609 18.6982C2.13577 18.615 1.8124 18.5275 1.53125 18.4346C1.15718 18.3109 0.818859 18.1661 0.561523 17.9902C0.359146 17.8519 0.0809157 17.6059 0.0146484 17.2354L0 17.0693L0.0146484 16.9023C0.081131 16.5323 0.359284 16.2867 0.561523 16.1484C0.81885 15.9725 1.15719 15.8278 1.53125 15.7041C2.28812 15.4538 3.34971 15.2383 4.62012 15.0605C7.1705 14.7038 10.673 14.4854 14.5273 14.4854H23.2871ZM34.4336 18.8789C34.0481 18.9493 33.6338 19.0167 33.1943 19.0781C30.644 19.4348 27.1415 19.6533 23.2871 19.6533H14.5273C10.673 19.6533 7.17049 19.4348 4.62012 19.0781C4.34067 19.039 4.07169 18.9958 3.81348 18.9531C4.2876 23.4406 4.8154 26.7214 5.49414 29.124C6.1992 31.6197 7.04627 33.094 8.08984 33.9941C9.1249 34.8867 10.4383 35.2883 12.248 35.4512C14.0799 35.616 16.2937 35.5303 19.1211 35.5303C21.9373 35.5303 24.159 35.5772 25.9863 35.3672C27.7944 35.1593 29.1196 34.7073 30.166 33.7744C31.2212 32.8336 32.0718 31.3344 32.7734 28.8682C33.4521 26.4825 33.9726 23.2546 34.4336 18.8789ZM14.5273 15.7686C10.7133 15.7686 7.27303 15.9849 4.79785 16.3311C3.55574 16.5048 2.583 16.7075 1.93457 16.9219C1.77942 16.9732 1.65077 17.0225 1.54688 17.0684C1.65089 17.1143 1.77909 17.1654 1.93457 17.2168C2.583 17.4312 3.55578 17.6339 4.79785 17.8076C7.27303 18.1538 10.7133 18.3701 14.5273 18.3701H23.2871C27.1011 18.3701 30.5414 18.1538 33.0166 17.8076C34.2586 17.6339 35.2314 17.4312 35.8799 17.2168C36.0349 17.1655 36.1627 17.1142 36.2666 17.0684C36.1629 17.0226 36.0346 16.973 35.8799 16.9219C35.2315 16.7075 34.2587 16.5048 33.0166 16.3311C30.5414 15.9849 27.1012 15.7686 23.2871 15.7686H14.5273ZM22.2656 0C24.2047 0.000208459 25.785 1.58047 25.7852 3.51953V4.74023H26.0869V6.02344H24.2881V4.74023H24.502V3.51953C24.5018 2.28889 23.4963 1.28341 22.2656 1.2832H21.8896C20.659 1.2834 19.6535 2.28888 19.6533 3.51953V12.2588H21.4199V9.77734H22.7031V12.2588H23.3545V13.542H14.459V12.2588H15.1113V9.77734H16.3945V12.2588H18.3701V3.51953C18.3703 1.58046 19.9506 0.000193589 21.8896 0H22.2656Z" fill="white"/>
</svg>
